<mxfile host="app.diagrams.net" agent="Mozilla/5.0 (Windows NT 10.0; Win64; x64) AppleWebKit/537.36 (KHTML, like Gecko) Chrome/136.0.0.0 Safari/537.36 Edg/136.0.0.0" version="27.0.5" pages="7">
  <diagram name="QuanLyProject" id="DZIC8MblxF4-mbxA4PoH">
    <mxGraphModel dx="1042" dy="3880" grid="1" gridSize="10" guides="1" tooltips="1" connect="1" arrows="1" fold="1" page="1" pageScale="1" pageWidth="850" pageHeight="1100" math="0" shadow="0">
      <root>
        <mxCell id="0" />
        <mxCell id="1" parent="0" />
        <mxCell id="jdhSy6ediEzl8pw4trRm-1" value="&amp;lt;&amp;lt;Actor&amp;gt;&amp;gt;&lt;div&gt;NguoiQuanTri&lt;/div&gt;" style="swimlane;fontStyle=1;align=center;verticalAlign=top;childLayout=stackLayout;horizontal=1;startSize=40;horizontalStack=0;resizeParent=1;resizeParentMax=0;resizeLast=0;collapsible=1;marginBottom=0;whiteSpace=wrap;html=1;" vertex="1" parent="1">
          <mxGeometry x="60" y="-3270" width="160" height="70" as="geometry" />
        </mxCell>
        <mxCell id="jdhSy6ediEzl8pw4trRm-3" value="" style="line;strokeWidth=1;fillColor=none;align=left;verticalAlign=middle;spacingTop=-1;spacingLeft=3;spacingRight=3;rotatable=0;labelPosition=right;points=[];portConstraint=eastwest;strokeColor=inherit;" vertex="1" parent="jdhSy6ediEzl8pw4trRm-1">
          <mxGeometry y="40" width="160" height="30" as="geometry" />
        </mxCell>
        <mxCell id="jdhSy6ediEzl8pw4trRm-5" value="&amp;lt;&amp;lt;Boundary&amp;gt;&amp;gt;&lt;div&gt;QuanLyProjectUI&lt;/div&gt;" style="swimlane;fontStyle=1;align=center;verticalAlign=top;childLayout=stackLayout;horizontal=1;startSize=40;horizontalStack=0;resizeParent=1;resizeParentMax=0;resizeLast=0;collapsible=1;marginBottom=0;whiteSpace=wrap;html=1;" vertex="1" parent="1">
          <mxGeometry x="310" y="-3270" width="210" height="240" as="geometry" />
        </mxCell>
        <mxCell id="jdhSy6ediEzl8pw4trRm-6" value="" style="line;strokeWidth=1;fillColor=none;align=left;verticalAlign=middle;spacingTop=-1;spacingLeft=3;spacingRight=3;rotatable=0;labelPosition=right;points=[];portConstraint=eastwest;strokeColor=inherit;" vertex="1" parent="jdhSy6ediEzl8pw4trRm-5">
          <mxGeometry y="40" width="210" height="30" as="geometry" />
        </mxCell>
        <mxCell id="jdhSy6ediEzl8pw4trRm-8" value="&amp;nbsp; &amp;nbsp; &amp;nbsp;Kich nut &quot;Quan ly Project()&quot;&lt;br&gt;&lt;div&gt;&lt;span style=&quot;background-color: transparent; color: light-dark(rgb(0, 0, 0), rgb(255, 255, 255));&quot;&gt;&amp;nbsp; &amp;nbsp; &amp;nbsp;&lt;/span&gt;Hien thi Danh sach Project()&lt;/div&gt;&lt;div&gt;&lt;span style=&quot;background-color: transparent; color: light-dark(rgb(0, 0, 0), rgb(255, 255, 255));&quot;&gt;&amp;nbsp; &amp;nbsp; &amp;nbsp;&lt;/span&gt;Kich nut &quot;Them Moi()&quot;&lt;/div&gt;&lt;div&gt;&lt;span style=&quot;background-color: transparent; color: light-dark(rgb(0, 0, 0), rgb(255, 255, 255));&quot;&gt;&amp;nbsp; &amp;nbsp; &amp;nbsp;&lt;/span&gt;Hien thi man hinh them Project()&lt;/div&gt;&lt;div&gt;&lt;span style=&quot;background-color: transparent; color: light-dark(rgb(0, 0, 0), rgb(255, 255, 255));&quot;&gt;&amp;nbsp; &amp;nbsp; &amp;nbsp;&lt;/span&gt;Kich nut &quot;Them()&quot;&lt;/div&gt;&lt;div&gt;&lt;span style=&quot;background-color: transparent; color: light-dark(rgb(0, 0, 0), rgb(255, 255, 255));&quot;&gt;&amp;nbsp; &amp;nbsp; &amp;nbsp;&lt;/span&gt;Kich nut &quot;Sua()&quot;&lt;/div&gt;&lt;div&gt;&amp;nbsp; &amp;nbsp; &amp;nbsp;&lt;span style=&quot;background-color: transparent; color: light-dark(rgb(0, 0, 0), rgb(255, 255, 255));&quot;&gt;Hien thi man hinh sua Project()&lt;/span&gt;&lt;/div&gt;&lt;div&gt;&lt;span style=&quot;background-color: transparent; color: light-dark(rgb(0, 0, 0), rgb(255, 255, 255));&quot;&gt;&amp;nbsp; &amp;nbsp; &amp;nbsp;&lt;/span&gt;Kich nut &quot;Sua()&quot;&lt;/div&gt;&lt;div&gt;&amp;nbsp;&lt;span style=&quot;background-color: transparent; color: light-dark(rgb(0, 0, 0), rgb(255, 255, 255));&quot;&gt;&amp;nbsp;&amp;nbsp; &amp;nbsp;&lt;/span&gt;&lt;span style=&quot;background-color: transparent; color: light-dark(rgb(0, 0, 0), rgb(255, 255, 255));&quot;&gt;Kich nut &quot;Xoa()&quot;&lt;/span&gt;&lt;/div&gt;&lt;div&gt;&amp;nbsp; &amp;nbsp; &amp;nbsp;&lt;span style=&quot;background-color: transparent; color: light-dark(rgb(0, 0, 0), rgb(255, 255, 255));&quot;&gt;Hien thi hop thoai xac nhan()&lt;/span&gt;&lt;/div&gt;&lt;div&gt;&lt;span style=&quot;background-color: transparent; color: light-dark(rgb(0, 0, 0), rgb(255, 255, 255));&quot;&gt;&amp;nbsp; &amp;nbsp; &amp;nbsp;&lt;/span&gt;Kich nut &quot;Xac nhan()&quot;&lt;/div&gt;" style="text;html=1;align=left;verticalAlign=middle;resizable=0;points=[];autosize=1;strokeColor=none;fillColor=none;" vertex="1" parent="jdhSy6ediEzl8pw4trRm-5">
          <mxGeometry y="70" width="210" height="170" as="geometry" />
        </mxCell>
        <mxCell id="jdhSy6ediEzl8pw4trRm-19" value="&amp;lt;&amp;lt;Control&amp;gt;&amp;gt;&lt;div&gt;QuanLyProjectController&lt;/div&gt;" style="swimlane;fontStyle=1;align=center;verticalAlign=top;childLayout=stackLayout;horizontal=1;startSize=40;horizontalStack=0;resizeParent=1;resizeParentMax=0;resizeLast=0;collapsible=1;marginBottom=0;whiteSpace=wrap;html=1;" vertex="1" parent="1">
          <mxGeometry x="305" y="-2960" width="220" height="170" as="geometry" />
        </mxCell>
        <mxCell id="jdhSy6ediEzl8pw4trRm-20" value="" style="line;strokeWidth=1;fillColor=none;align=left;verticalAlign=middle;spacingTop=-1;spacingLeft=3;spacingRight=3;rotatable=0;labelPosition=right;points=[];portConstraint=eastwest;strokeColor=inherit;" vertex="1" parent="jdhSy6ediEzl8pw4trRm-19">
          <mxGeometry y="40" width="220" height="30" as="geometry" />
        </mxCell>
        <mxCell id="jdhSy6ediEzl8pw4trRm-21" value="&amp;nbsp; &amp;nbsp; &amp;nbsp;Lay thong tin cac Project()&lt;div&gt;&amp;nbsp; &amp;nbsp; &amp;nbsp;Sinh ra ma Project()&lt;/div&gt;&lt;div&gt;&amp;nbsp; &amp;nbsp; &amp;nbsp;Tao Project moi()&lt;/div&gt;&lt;div&gt;&amp;nbsp; &amp;nbsp; &amp;nbsp;Lay thong tin Project duoc chon()&lt;/div&gt;&lt;div&gt;&amp;nbsp; &amp;nbsp; &amp;nbsp;Sua&amp;nbsp;&lt;span style=&quot;background-color: transparent; color: light-dark(rgb(0, 0, 0), rgb(255, 255, 255));&quot;&gt;thong tin Project duoc chon()&lt;/span&gt;&lt;/div&gt;&lt;div&gt;&amp;nbsp; &amp;nbsp; &amp;nbsp;Xoa&amp;nbsp;&lt;span style=&quot;background-color: transparent; color: light-dark(rgb(0, 0, 0), rgb(255, 255, 255));&quot;&gt;thong tin Project duoc chon()&lt;/span&gt;&lt;/div&gt;" style="text;html=1;align=left;verticalAlign=middle;resizable=0;points=[];autosize=1;strokeColor=none;fillColor=none;" vertex="1" parent="jdhSy6ediEzl8pw4trRm-19">
          <mxGeometry y="70" width="220" height="100" as="geometry" />
        </mxCell>
        <mxCell id="jdhSy6ediEzl8pw4trRm-22" value="&amp;lt;&amp;lt;Actor&amp;gt;&amp;gt;&lt;div&gt;CSDL&lt;/div&gt;" style="swimlane;fontStyle=1;align=center;verticalAlign=top;childLayout=stackLayout;horizontal=1;startSize=40;horizontalStack=0;resizeParent=1;resizeParentMax=0;resizeLast=0;collapsible=1;marginBottom=0;whiteSpace=wrap;html=1;" vertex="1" parent="1">
          <mxGeometry x="35" y="-2930" width="210" height="110" as="geometry" />
        </mxCell>
        <mxCell id="jdhSy6ediEzl8pw4trRm-23" value="" style="line;strokeWidth=1;fillColor=none;align=left;verticalAlign=middle;spacingTop=-1;spacingLeft=3;spacingRight=3;rotatable=0;labelPosition=right;points=[];portConstraint=eastwest;strokeColor=inherit;" vertex="1" parent="jdhSy6ediEzl8pw4trRm-22">
          <mxGeometry y="40" width="210" height="30" as="geometry" />
        </mxCell>
        <mxCell id="jdhSy6ediEzl8pw4trRm-24" value="&amp;nbsp; &amp;nbsp; &amp;nbsp;Doc bang PROJECT()&lt;div&gt;&amp;nbsp; &amp;nbsp; &amp;nbsp;Cap nhat bang PROJECT()&lt;/div&gt;" style="text;html=1;align=left;verticalAlign=middle;resizable=0;points=[];autosize=1;strokeColor=none;fillColor=none;" vertex="1" parent="jdhSy6ediEzl8pw4trRm-22">
          <mxGeometry y="70" width="210" height="40" as="geometry" />
        </mxCell>
        <mxCell id="jdhSy6ediEzl8pw4trRm-25" value="&amp;lt;&amp;lt;Actor&amp;gt;&amp;gt;&lt;div&gt;ICSDL&lt;/div&gt;" style="swimlane;fontStyle=1;align=center;verticalAlign=top;childLayout=stackLayout;horizontal=1;startSize=40;horizontalStack=0;resizeParent=1;resizeParentMax=0;resizeLast=0;collapsible=1;marginBottom=0;whiteSpace=wrap;html=1;" vertex="1" parent="1">
          <mxGeometry x="35" y="-3140" width="210" height="110" as="geometry" />
        </mxCell>
        <mxCell id="jdhSy6ediEzl8pw4trRm-26" value="" style="line;strokeWidth=1;fillColor=none;align=left;verticalAlign=middle;spacingTop=-1;spacingLeft=3;spacingRight=3;rotatable=0;labelPosition=right;points=[];portConstraint=eastwest;strokeColor=inherit;" vertex="1" parent="jdhSy6ediEzl8pw4trRm-25">
          <mxGeometry y="40" width="210" height="30" as="geometry" />
        </mxCell>
        <mxCell id="jdhSy6ediEzl8pw4trRm-27" value="&amp;nbsp; &amp;nbsp; &amp;nbsp;Doc bang PROJECT()&lt;div&gt;&amp;nbsp; &amp;nbsp; &amp;nbsp;Cap nhat bang PROJECT()&lt;/div&gt;" style="text;html=1;align=left;verticalAlign=middle;resizable=0;points=[];autosize=1;strokeColor=none;fillColor=none;" vertex="1" parent="jdhSy6ediEzl8pw4trRm-25">
          <mxGeometry y="70" width="210" height="40" as="geometry" />
        </mxCell>
        <mxCell id="jdhSy6ediEzl8pw4trRm-28" value="&amp;lt;&amp;lt;Entity&amp;gt;&amp;gt;&lt;div&gt;PROJECT&lt;/div&gt;" style="swimlane;fontStyle=1;align=center;verticalAlign=top;childLayout=stackLayout;horizontal=1;startSize=40;horizontalStack=0;resizeParent=1;resizeParentMax=0;resizeLast=0;collapsible=1;marginBottom=0;whiteSpace=wrap;html=1;" vertex="1" parent="1">
          <mxGeometry x="610" y="-3270" width="210" height="480" as="geometry" />
        </mxCell>
        <mxCell id="jdhSy6ediEzl8pw4trRm-35" value="&amp;nbsp; &amp;nbsp; &amp;nbsp;id&lt;div&gt;&amp;nbsp; &amp;nbsp; &amp;nbsp;name&lt;/div&gt;&lt;div&gt;&amp;nbsp; &amp;nbsp; &amp;nbsp;description&lt;/div&gt;&lt;div&gt;&amp;nbsp; &amp;nbsp; &amp;nbsp;startDate&lt;/div&gt;&lt;div&gt;&amp;nbsp; &amp;nbsp; &amp;nbsp;dueDate&lt;/div&gt;&lt;div&gt;&amp;nbsp; &amp;nbsp; &amp;nbsp;status&lt;/div&gt;&lt;div&gt;&amp;nbsp; &amp;nbsp; &amp;nbsp;createdDate&lt;/div&gt;&lt;div&gt;&amp;nbsp; &amp;nbsp; &amp;nbsp;lastModifiedDate&lt;/div&gt;&lt;div&gt;&amp;nbsp; &amp;nbsp; &amp;nbsp;managerId&lt;/div&gt;" style="text;html=1;align=left;verticalAlign=middle;resizable=0;points=[];autosize=1;strokeColor=none;fillColor=none;" vertex="1" parent="jdhSy6ediEzl8pw4trRm-28">
          <mxGeometry y="40" width="210" height="140" as="geometry" />
        </mxCell>
        <mxCell id="jdhSy6ediEzl8pw4trRm-29" value="" style="line;strokeWidth=1;fillColor=none;align=left;verticalAlign=middle;spacingTop=-1;spacingLeft=3;spacingRight=3;rotatable=0;labelPosition=right;points=[];portConstraint=eastwest;strokeColor=inherit;" vertex="1" parent="jdhSy6ediEzl8pw4trRm-28">
          <mxGeometry y="180" width="210" height="30" as="geometry" />
        </mxCell>
        <mxCell id="jdhSy6ediEzl8pw4trRm-30" value="&amp;nbsp; &amp;nbsp; &amp;nbsp;getid&lt;div&gt;&amp;nbsp; &amp;nbsp; &amp;nbsp;getname&lt;/div&gt;&lt;div&gt;&amp;nbsp; &amp;nbsp; &amp;nbsp;getdescription&lt;/div&gt;&lt;div&gt;&amp;nbsp; &amp;nbsp; &amp;nbsp;getstartDate&lt;/div&gt;&lt;div&gt;&amp;nbsp; &amp;nbsp; &amp;nbsp;getdueDate&lt;/div&gt;&lt;div&gt;&amp;nbsp; &amp;nbsp; &amp;nbsp;getstatus&lt;/div&gt;&lt;div&gt;&amp;nbsp; &amp;nbsp; &amp;nbsp;getcreatedDate&lt;/div&gt;&lt;div&gt;&amp;nbsp; &amp;nbsp; &amp;nbsp;getlastModifiedDate&lt;/div&gt;&lt;div&gt;&amp;nbsp; &amp;nbsp; &amp;nbsp;getmanagerId&lt;/div&gt;&lt;div&gt;&amp;nbsp; &amp;nbsp; &amp;nbsp;setid&lt;div&gt;&amp;nbsp; &amp;nbsp; &amp;nbsp;setname&lt;/div&gt;&lt;div&gt;&amp;nbsp; &amp;nbsp; &amp;nbsp;setdescription&lt;/div&gt;&lt;div&gt;&amp;nbsp; &amp;nbsp; &amp;nbsp;setstartDate&lt;/div&gt;&lt;div&gt;&amp;nbsp; &amp;nbsp; &amp;nbsp;setdueDate&lt;/div&gt;&lt;div&gt;&amp;nbsp; &amp;nbsp; &amp;nbsp;setstatus&lt;/div&gt;&lt;div&gt;&amp;nbsp; &amp;nbsp; &amp;nbsp;setcreatedDate&lt;/div&gt;&lt;div&gt;&amp;nbsp; &amp;nbsp; &amp;nbsp;setlastModifiedDate&lt;/div&gt;&lt;div&gt;&amp;nbsp; &amp;nbsp; &amp;nbsp;setmanagerId&lt;/div&gt;&lt;/div&gt;" style="text;html=1;align=left;verticalAlign=middle;resizable=0;points=[];autosize=1;strokeColor=none;fillColor=none;" vertex="1" parent="jdhSy6ediEzl8pw4trRm-28">
          <mxGeometry y="210" width="210" height="270" as="geometry" />
        </mxCell>
        <mxCell id="jdhSy6ediEzl8pw4trRm-39" value="" style="endArrow=none;html=1;rounded=0;exitX=1;exitY=0.5;exitDx=0;exitDy=0;entryX=-0.008;entryY=0.166;entryDx=0;entryDy=0;entryPerimeter=0;" edge="1" parent="1" source="jdhSy6ediEzl8pw4trRm-1" target="jdhSy6ediEzl8pw4trRm-5">
          <mxGeometry width="50" height="50" relative="1" as="geometry">
            <mxPoint x="400" y="-2960" as="sourcePoint" />
            <mxPoint x="450" y="-3010" as="targetPoint" />
          </mxGeometry>
        </mxCell>
        <mxCell id="jdhSy6ediEzl8pw4trRm-40" value="" style="endArrow=none;html=1;rounded=0;exitX=0.5;exitY=0;exitDx=0;exitDy=0;" edge="1" parent="1" source="jdhSy6ediEzl8pw4trRm-22" target="jdhSy6ediEzl8pw4trRm-25">
          <mxGeometry width="50" height="50" relative="1" as="geometry">
            <mxPoint x="280" y="-2902.5" as="sourcePoint" />
            <mxPoint x="282.52" y="-3098.9700000000003" as="targetPoint" />
          </mxGeometry>
        </mxCell>
        <mxCell id="jdhSy6ediEzl8pw4trRm-42" value="" style="endArrow=none;html=1;rounded=0;exitX=0;exitY=0.25;exitDx=0;exitDy=0;entryX=1;entryY=0.5;entryDx=0;entryDy=0;" edge="1" parent="1" source="jdhSy6ediEzl8pw4trRm-19" target="jdhSy6ediEzl8pw4trRm-25">
          <mxGeometry width="50" height="50" relative="1" as="geometry">
            <mxPoint x="150" y="-2920" as="sourcePoint" />
            <mxPoint x="150" y="-3020" as="targetPoint" />
          </mxGeometry>
        </mxCell>
        <mxCell id="jdhSy6ediEzl8pw4trRm-43" value="" style="endArrow=none;html=1;rounded=0;" edge="1" parent="1" source="jdhSy6ediEzl8pw4trRm-19" target="jdhSy6ediEzl8pw4trRm-28">
          <mxGeometry width="50" height="50" relative="1" as="geometry">
            <mxPoint x="315" y="-2907" as="sourcePoint" />
            <mxPoint x="255" y="-3075" as="targetPoint" />
          </mxGeometry>
        </mxCell>
        <mxCell id="jdhSy6ediEzl8pw4trRm-45" value="" style="endArrow=none;html=1;rounded=0;exitX=0.47;exitY=-0.018;exitDx=0;exitDy=0;exitPerimeter=0;" edge="1" parent="1" source="jdhSy6ediEzl8pw4trRm-19" target="jdhSy6ediEzl8pw4trRm-5">
          <mxGeometry width="50" height="50" relative="1" as="geometry">
            <mxPoint x="535" y="-2896" as="sourcePoint" />
            <mxPoint x="620" y="-2920" as="targetPoint" />
          </mxGeometry>
        </mxCell>
        <mxCell id="jdhSy6ediEzl8pw4trRm-46" value="1" style="text;html=1;align=center;verticalAlign=middle;resizable=0;points=[];autosize=1;strokeColor=none;fillColor=none;" vertex="1" parent="1">
          <mxGeometry x="520" y="-2905" width="30" height="30" as="geometry" />
        </mxCell>
        <mxCell id="jdhSy6ediEzl8pw4trRm-48" value="*" style="text;html=1;align=center;verticalAlign=middle;resizable=0;points=[];autosize=1;strokeColor=none;fillColor=none;" vertex="1" parent="1">
          <mxGeometry x="580" y="-2910" width="30" height="30" as="geometry" />
        </mxCell>
        <mxCell id="jdhSy6ediEzl8pw4trRm-49" value="1" style="text;html=1;align=center;verticalAlign=middle;resizable=0;points=[];autosize=1;strokeColor=none;fillColor=none;" vertex="1" parent="1">
          <mxGeometry x="245" y="-3090" width="30" height="30" as="geometry" />
        </mxCell>
        <mxCell id="jdhSy6ediEzl8pw4trRm-50" value="*" style="text;html=1;align=center;verticalAlign=middle;resizable=0;points=[];autosize=1;strokeColor=none;fillColor=none;" vertex="1" parent="1">
          <mxGeometry x="280" y="-2940" width="30" height="30" as="geometry" />
        </mxCell>
        <mxCell id="jdhSy6ediEzl8pw4trRm-51" value="1" style="text;html=1;align=center;verticalAlign=middle;resizable=0;points=[];autosize=1;strokeColor=none;fillColor=none;" vertex="1" parent="1">
          <mxGeometry x="403" y="-3035" width="30" height="30" as="geometry" />
        </mxCell>
        <mxCell id="jdhSy6ediEzl8pw4trRm-52" value="1" style="text;html=1;align=center;verticalAlign=middle;resizable=0;points=[];autosize=1;strokeColor=none;fillColor=none;" vertex="1" parent="1">
          <mxGeometry x="403" y="-2986" width="30" height="30" as="geometry" />
        </mxCell>
      </root>
    </mxGraphModel>
  </diagram>
  <diagram id="H-gTHSOP2IEFcrLF4SOY" name="QuanLyTask">
    <mxGraphModel dx="1042" dy="3880" grid="1" gridSize="10" guides="1" tooltips="1" connect="1" arrows="1" fold="1" page="1" pageScale="1" pageWidth="850" pageHeight="1100" math="0" shadow="0">
      <root>
        <mxCell id="0" />
        <mxCell id="1" parent="0" />
        <mxCell id="XLlgdBSgz7htmFRMDK3X-1" value="&amp;lt;&amp;lt;Actor&amp;gt;&amp;gt;&lt;div&gt;NguoiQuanTri&lt;/div&gt;" style="swimlane;fontStyle=1;align=center;verticalAlign=top;childLayout=stackLayout;horizontal=1;startSize=40;horizontalStack=0;resizeParent=1;resizeParentMax=0;resizeLast=0;collapsible=1;marginBottom=0;whiteSpace=wrap;html=1;" vertex="1" parent="1">
          <mxGeometry x="60" y="-3270" width="160" height="70" as="geometry" />
        </mxCell>
        <mxCell id="XLlgdBSgz7htmFRMDK3X-2" value="" style="line;strokeWidth=1;fillColor=none;align=left;verticalAlign=middle;spacingTop=-1;spacingLeft=3;spacingRight=3;rotatable=0;labelPosition=right;points=[];portConstraint=eastwest;strokeColor=inherit;" vertex="1" parent="XLlgdBSgz7htmFRMDK3X-1">
          <mxGeometry y="40" width="160" height="30" as="geometry" />
        </mxCell>
        <mxCell id="XLlgdBSgz7htmFRMDK3X-3" value="&amp;lt;&amp;lt;Boundary&amp;gt;&amp;gt;&lt;div&gt;QuanLyTaskUI&lt;/div&gt;" style="swimlane;fontStyle=1;align=center;verticalAlign=top;childLayout=stackLayout;horizontal=1;startSize=40;horizontalStack=0;resizeParent=1;resizeParentMax=0;resizeLast=0;collapsible=1;marginBottom=0;whiteSpace=wrap;html=1;" vertex="1" parent="1">
          <mxGeometry x="310" y="-3270" width="210" height="240" as="geometry" />
        </mxCell>
        <mxCell id="XLlgdBSgz7htmFRMDK3X-4" value="" style="line;strokeWidth=1;fillColor=none;align=left;verticalAlign=middle;spacingTop=-1;spacingLeft=3;spacingRight=3;rotatable=0;labelPosition=right;points=[];portConstraint=eastwest;strokeColor=inherit;" vertex="1" parent="XLlgdBSgz7htmFRMDK3X-3">
          <mxGeometry y="40" width="210" height="30" as="geometry" />
        </mxCell>
        <mxCell id="XLlgdBSgz7htmFRMDK3X-5" value="&amp;nbsp; &amp;nbsp; &amp;nbsp;Kich nut &quot;Quan ly Task()&quot;&lt;br&gt;&lt;div&gt;&lt;span style=&quot;background-color: transparent; color: light-dark(rgb(0, 0, 0), rgb(255, 255, 255));&quot;&gt;&amp;nbsp; &amp;nbsp; &amp;nbsp;&lt;/span&gt;Hien thi Danh sach Task()&lt;/div&gt;&lt;div&gt;&lt;span style=&quot;background-color: transparent; color: light-dark(rgb(0, 0, 0), rgb(255, 255, 255));&quot;&gt;&amp;nbsp; &amp;nbsp; &amp;nbsp;&lt;/span&gt;Kich nut &quot;Them Moi()&quot;&lt;/div&gt;&lt;div&gt;&lt;span style=&quot;background-color: transparent; color: light-dark(rgb(0, 0, 0), rgb(255, 255, 255));&quot;&gt;&amp;nbsp; &amp;nbsp; &amp;nbsp;&lt;/span&gt;Hien thi man hinh them Task()&lt;/div&gt;&lt;div&gt;&lt;span style=&quot;background-color: transparent; color: light-dark(rgb(0, 0, 0), rgb(255, 255, 255));&quot;&gt;&amp;nbsp; &amp;nbsp; &amp;nbsp;&lt;/span&gt;Kich nut &quot;Them()&quot;&lt;/div&gt;&lt;div&gt;&lt;span style=&quot;background-color: transparent; color: light-dark(rgb(0, 0, 0), rgb(255, 255, 255));&quot;&gt;&amp;nbsp; &amp;nbsp; &amp;nbsp;&lt;/span&gt;Kich nut &quot;Sua()&quot;&lt;/div&gt;&lt;div&gt;&amp;nbsp; &amp;nbsp; &amp;nbsp;&lt;span style=&quot;background-color: transparent; color: light-dark(rgb(0, 0, 0), rgb(255, 255, 255));&quot;&gt;Hien thi man hinh sua Task()&lt;/span&gt;&lt;/div&gt;&lt;div&gt;&lt;span style=&quot;background-color: transparent; color: light-dark(rgb(0, 0, 0), rgb(255, 255, 255));&quot;&gt;&amp;nbsp; &amp;nbsp; &amp;nbsp;&lt;/span&gt;Kich nut &quot;Sua()&quot;&lt;/div&gt;&lt;div&gt;&amp;nbsp;&lt;span style=&quot;background-color: transparent; color: light-dark(rgb(0, 0, 0), rgb(255, 255, 255));&quot;&gt;&amp;nbsp;&amp;nbsp; &amp;nbsp;&lt;/span&gt;&lt;span style=&quot;background-color: transparent; color: light-dark(rgb(0, 0, 0), rgb(255, 255, 255));&quot;&gt;Kich nut &quot;Xoa()&quot;&lt;/span&gt;&lt;/div&gt;&lt;div&gt;&amp;nbsp; &amp;nbsp; &amp;nbsp;&lt;span style=&quot;background-color: transparent; color: light-dark(rgb(0, 0, 0), rgb(255, 255, 255));&quot;&gt;Hien thi hop thoai xac nhan()&lt;/span&gt;&lt;/div&gt;&lt;div&gt;&lt;span style=&quot;background-color: transparent; color: light-dark(rgb(0, 0, 0), rgb(255, 255, 255));&quot;&gt;&amp;nbsp; &amp;nbsp; &amp;nbsp;&lt;/span&gt;Kich nut &quot;Xac nhan()&quot;&lt;/div&gt;" style="text;html=1;align=left;verticalAlign=middle;resizable=0;points=[];autosize=1;strokeColor=none;fillColor=none;" vertex="1" parent="XLlgdBSgz7htmFRMDK3X-3">
          <mxGeometry y="70" width="210" height="170" as="geometry" />
        </mxCell>
        <mxCell id="XLlgdBSgz7htmFRMDK3X-6" value="&amp;lt;&amp;lt;Control&amp;gt;&amp;gt;&lt;div&gt;QuanLyTaskController&lt;/div&gt;" style="swimlane;fontStyle=1;align=center;verticalAlign=top;childLayout=stackLayout;horizontal=1;startSize=40;horizontalStack=0;resizeParent=1;resizeParentMax=0;resizeLast=0;collapsible=1;marginBottom=0;whiteSpace=wrap;html=1;" vertex="1" parent="1">
          <mxGeometry x="305" y="-2960" width="220" height="170" as="geometry" />
        </mxCell>
        <mxCell id="XLlgdBSgz7htmFRMDK3X-7" value="" style="line;strokeWidth=1;fillColor=none;align=left;verticalAlign=middle;spacingTop=-1;spacingLeft=3;spacingRight=3;rotatable=0;labelPosition=right;points=[];portConstraint=eastwest;strokeColor=inherit;" vertex="1" parent="XLlgdBSgz7htmFRMDK3X-6">
          <mxGeometry y="40" width="220" height="30" as="geometry" />
        </mxCell>
        <mxCell id="XLlgdBSgz7htmFRMDK3X-8" value="&amp;nbsp; &amp;nbsp; &amp;nbsp;Lay thong tin cac Task()&lt;div&gt;&amp;nbsp; &amp;nbsp; &amp;nbsp;Sinh ra ma Task()&lt;/div&gt;&lt;div&gt;&amp;nbsp; &amp;nbsp; &amp;nbsp;Tao Task moi()&lt;/div&gt;&lt;div&gt;&amp;nbsp; &amp;nbsp; &amp;nbsp;Lay thong tin Task duoc chon()&lt;/div&gt;&lt;div&gt;&amp;nbsp; &amp;nbsp; &amp;nbsp;Sua&amp;nbsp;&lt;span style=&quot;background-color: transparent; color: light-dark(rgb(0, 0, 0), rgb(255, 255, 255));&quot;&gt;thong tin Task duoc chon()&lt;/span&gt;&lt;/div&gt;&lt;div&gt;&amp;nbsp; &amp;nbsp; &amp;nbsp;Xoa&amp;nbsp;&lt;span style=&quot;background-color: transparent; color: light-dark(rgb(0, 0, 0), rgb(255, 255, 255));&quot;&gt;thong tin Task duoc chon()&lt;/span&gt;&lt;/div&gt;" style="text;html=1;align=left;verticalAlign=middle;resizable=0;points=[];autosize=1;strokeColor=none;fillColor=none;" vertex="1" parent="XLlgdBSgz7htmFRMDK3X-6">
          <mxGeometry y="70" width="220" height="100" as="geometry" />
        </mxCell>
        <mxCell id="XLlgdBSgz7htmFRMDK3X-9" value="&amp;lt;&amp;lt;Actor&amp;gt;&amp;gt;&lt;div&gt;CSDL&lt;/div&gt;" style="swimlane;fontStyle=1;align=center;verticalAlign=top;childLayout=stackLayout;horizontal=1;startSize=40;horizontalStack=0;resizeParent=1;resizeParentMax=0;resizeLast=0;collapsible=1;marginBottom=0;whiteSpace=wrap;html=1;" vertex="1" parent="1">
          <mxGeometry x="35" y="-2930" width="210" height="110" as="geometry" />
        </mxCell>
        <mxCell id="XLlgdBSgz7htmFRMDK3X-10" value="" style="line;strokeWidth=1;fillColor=none;align=left;verticalAlign=middle;spacingTop=-1;spacingLeft=3;spacingRight=3;rotatable=0;labelPosition=right;points=[];portConstraint=eastwest;strokeColor=inherit;" vertex="1" parent="XLlgdBSgz7htmFRMDK3X-9">
          <mxGeometry y="40" width="210" height="30" as="geometry" />
        </mxCell>
        <mxCell id="XLlgdBSgz7htmFRMDK3X-11" value="&amp;nbsp; &amp;nbsp; &amp;nbsp;Doc bang Task()&lt;div&gt;&amp;nbsp; &amp;nbsp; &amp;nbsp;Cap nhat bang Task()&lt;/div&gt;" style="text;html=1;align=left;verticalAlign=middle;resizable=0;points=[];autosize=1;strokeColor=none;fillColor=none;" vertex="1" parent="XLlgdBSgz7htmFRMDK3X-9">
          <mxGeometry y="70" width="210" height="40" as="geometry" />
        </mxCell>
        <mxCell id="XLlgdBSgz7htmFRMDK3X-12" value="&amp;lt;&amp;lt;Actor&amp;gt;&amp;gt;&lt;div&gt;ICSDL&lt;/div&gt;" style="swimlane;fontStyle=1;align=center;verticalAlign=top;childLayout=stackLayout;horizontal=1;startSize=40;horizontalStack=0;resizeParent=1;resizeParentMax=0;resizeLast=0;collapsible=1;marginBottom=0;whiteSpace=wrap;html=1;" vertex="1" parent="1">
          <mxGeometry x="35" y="-3140" width="210" height="110" as="geometry" />
        </mxCell>
        <mxCell id="XLlgdBSgz7htmFRMDK3X-13" value="" style="line;strokeWidth=1;fillColor=none;align=left;verticalAlign=middle;spacingTop=-1;spacingLeft=3;spacingRight=3;rotatable=0;labelPosition=right;points=[];portConstraint=eastwest;strokeColor=inherit;" vertex="1" parent="XLlgdBSgz7htmFRMDK3X-12">
          <mxGeometry y="40" width="210" height="30" as="geometry" />
        </mxCell>
        <mxCell id="XLlgdBSgz7htmFRMDK3X-14" value="&amp;nbsp; &amp;nbsp; &amp;nbsp;Doc bang Task()&lt;div&gt;&amp;nbsp; &amp;nbsp; &amp;nbsp;Cap nhat bang Task()&lt;/div&gt;" style="text;html=1;align=left;verticalAlign=middle;resizable=0;points=[];autosize=1;strokeColor=none;fillColor=none;" vertex="1" parent="XLlgdBSgz7htmFRMDK3X-12">
          <mxGeometry y="70" width="210" height="40" as="geometry" />
        </mxCell>
        <mxCell id="XLlgdBSgz7htmFRMDK3X-15" value="&amp;lt;&amp;lt;Entity&amp;gt;&amp;gt;&lt;div&gt;Task&lt;/div&gt;" style="swimlane;fontStyle=1;align=center;verticalAlign=top;childLayout=stackLayout;horizontal=1;startSize=40;horizontalStack=0;resizeParent=1;resizeParentMax=0;resizeLast=0;collapsible=1;marginBottom=0;whiteSpace=wrap;html=1;" vertex="1" parent="1">
          <mxGeometry x="610" y="-3270" width="210" height="530" as="geometry" />
        </mxCell>
        <mxCell id="XLlgdBSgz7htmFRMDK3X-16" value="&amp;nbsp; &amp;nbsp; &amp;nbsp;id&lt;div&gt;&amp;nbsp; &amp;nbsp; &amp;nbsp;name&lt;/div&gt;&lt;div&gt;&amp;nbsp; &amp;nbsp; &amp;nbsp;description&lt;/div&gt;&lt;div&gt;&amp;nbsp; &amp;nbsp; &amp;nbsp;startDate&lt;/div&gt;&lt;div&gt;&amp;nbsp; &amp;nbsp; &amp;nbsp;dueDate&lt;/div&gt;&lt;div&gt;&amp;nbsp; &amp;nbsp; &amp;nbsp;status&lt;/div&gt;&lt;div&gt;&amp;nbsp; &amp;nbsp; &amp;nbsp;createdDate&lt;/div&gt;&lt;div&gt;&amp;nbsp; &amp;nbsp; &amp;nbsp;lastModifiedDate&lt;/div&gt;&lt;div&gt;&amp;nbsp; &amp;nbsp; &amp;nbsp;projectId&lt;/div&gt;&lt;div&gt;&amp;nbsp; &amp;nbsp; &amp;nbsp;priority&lt;/div&gt;" style="text;html=1;align=left;verticalAlign=middle;resizable=0;points=[];autosize=1;strokeColor=none;fillColor=none;" vertex="1" parent="XLlgdBSgz7htmFRMDK3X-15">
          <mxGeometry y="40" width="210" height="160" as="geometry" />
        </mxCell>
        <mxCell id="XLlgdBSgz7htmFRMDK3X-19" value="" style="line;strokeWidth=1;fillColor=none;align=left;verticalAlign=middle;spacingTop=-1;spacingLeft=3;spacingRight=3;rotatable=0;labelPosition=right;points=[];portConstraint=eastwest;strokeColor=inherit;" vertex="1" parent="XLlgdBSgz7htmFRMDK3X-15">
          <mxGeometry y="200" width="210" height="30" as="geometry" />
        </mxCell>
        <mxCell id="XLlgdBSgz7htmFRMDK3X-20" value="&amp;nbsp; &amp;nbsp; &amp;nbsp;getid&lt;div&gt;&amp;nbsp; &amp;nbsp; &amp;nbsp;getname&lt;/div&gt;&lt;div&gt;&amp;nbsp; &amp;nbsp; &amp;nbsp;getdescription&lt;/div&gt;&lt;div&gt;&amp;nbsp; &amp;nbsp; &amp;nbsp;getstartDate&lt;/div&gt;&lt;div&gt;&amp;nbsp; &amp;nbsp; &amp;nbsp;getdueDate&lt;/div&gt;&lt;div&gt;&amp;nbsp; &amp;nbsp; &amp;nbsp;getstatus&lt;/div&gt;&lt;div&gt;&amp;nbsp; &amp;nbsp; &amp;nbsp;getcreatedDate&lt;/div&gt;&lt;div&gt;&amp;nbsp; &amp;nbsp; &amp;nbsp;getlastModifiedDate&lt;/div&gt;&lt;div&gt;&amp;nbsp; &amp;nbsp; &amp;nbsp;getprojectId&lt;/div&gt;&lt;div&gt;&amp;nbsp; &amp;nbsp; &amp;nbsp;getpriority&lt;/div&gt;&lt;div&gt;&amp;nbsp; &amp;nbsp; &amp;nbsp;setid&lt;div&gt;&amp;nbsp; &amp;nbsp; &amp;nbsp;setname&lt;/div&gt;&lt;div&gt;&amp;nbsp; &amp;nbsp; &amp;nbsp;setdescription&lt;/div&gt;&lt;div&gt;&amp;nbsp; &amp;nbsp; &amp;nbsp;setstartDate&lt;/div&gt;&lt;div&gt;&amp;nbsp; &amp;nbsp; &amp;nbsp;setdueDate&lt;/div&gt;&lt;div&gt;&amp;nbsp; &amp;nbsp; &amp;nbsp;setstatus&lt;/div&gt;&lt;div&gt;&amp;nbsp; &amp;nbsp; &amp;nbsp;setcreatedDate&lt;/div&gt;&lt;div&gt;&amp;nbsp; &amp;nbsp; &amp;nbsp;setlastModifiedDate&lt;/div&gt;&lt;div&gt;&amp;nbsp; &amp;nbsp; &amp;nbsp;setprojectId&lt;/div&gt;&lt;/div&gt;&lt;div&gt;&amp;nbsp; &amp;nbsp; &amp;nbsp;setpriority&lt;/div&gt;" style="text;html=1;align=left;verticalAlign=middle;resizable=0;points=[];autosize=1;strokeColor=none;fillColor=none;" vertex="1" parent="XLlgdBSgz7htmFRMDK3X-15">
          <mxGeometry y="230" width="210" height="300" as="geometry" />
        </mxCell>
        <mxCell id="XLlgdBSgz7htmFRMDK3X-21" value="" style="endArrow=none;html=1;rounded=0;exitX=1;exitY=0.5;exitDx=0;exitDy=0;entryX=-0.008;entryY=0.166;entryDx=0;entryDy=0;entryPerimeter=0;" edge="1" parent="1" source="XLlgdBSgz7htmFRMDK3X-1" target="XLlgdBSgz7htmFRMDK3X-3">
          <mxGeometry width="50" height="50" relative="1" as="geometry">
            <mxPoint x="400" y="-2960" as="sourcePoint" />
            <mxPoint x="450" y="-3010" as="targetPoint" />
          </mxGeometry>
        </mxCell>
        <mxCell id="XLlgdBSgz7htmFRMDK3X-22" value="" style="endArrow=none;html=1;rounded=0;exitX=0.5;exitY=0;exitDx=0;exitDy=0;" edge="1" parent="1" source="XLlgdBSgz7htmFRMDK3X-9" target="XLlgdBSgz7htmFRMDK3X-12">
          <mxGeometry width="50" height="50" relative="1" as="geometry">
            <mxPoint x="280" y="-2902.5" as="sourcePoint" />
            <mxPoint x="282.52" y="-3098.9700000000003" as="targetPoint" />
          </mxGeometry>
        </mxCell>
        <mxCell id="XLlgdBSgz7htmFRMDK3X-23" value="" style="endArrow=none;html=1;rounded=0;exitX=0;exitY=0.25;exitDx=0;exitDy=0;entryX=1;entryY=0.5;entryDx=0;entryDy=0;" edge="1" parent="1" source="XLlgdBSgz7htmFRMDK3X-6" target="XLlgdBSgz7htmFRMDK3X-12">
          <mxGeometry width="50" height="50" relative="1" as="geometry">
            <mxPoint x="150" y="-2920" as="sourcePoint" />
            <mxPoint x="150" y="-3020" as="targetPoint" />
          </mxGeometry>
        </mxCell>
        <mxCell id="XLlgdBSgz7htmFRMDK3X-24" value="" style="endArrow=none;html=1;rounded=0;" edge="1" parent="1" source="XLlgdBSgz7htmFRMDK3X-6" target="XLlgdBSgz7htmFRMDK3X-15">
          <mxGeometry width="50" height="50" relative="1" as="geometry">
            <mxPoint x="315" y="-2907" as="sourcePoint" />
            <mxPoint x="255" y="-3075" as="targetPoint" />
          </mxGeometry>
        </mxCell>
        <mxCell id="XLlgdBSgz7htmFRMDK3X-25" value="" style="endArrow=none;html=1;rounded=0;exitX=0.47;exitY=-0.018;exitDx=0;exitDy=0;exitPerimeter=0;" edge="1" parent="1" source="XLlgdBSgz7htmFRMDK3X-6" target="XLlgdBSgz7htmFRMDK3X-3">
          <mxGeometry width="50" height="50" relative="1" as="geometry">
            <mxPoint x="535" y="-2896" as="sourcePoint" />
            <mxPoint x="620" y="-2920" as="targetPoint" />
          </mxGeometry>
        </mxCell>
        <mxCell id="XLlgdBSgz7htmFRMDK3X-26" value="1" style="text;html=1;align=center;verticalAlign=middle;resizable=0;points=[];autosize=1;strokeColor=none;fillColor=none;" vertex="1" parent="1">
          <mxGeometry x="520" y="-2905" width="30" height="30" as="geometry" />
        </mxCell>
        <mxCell id="XLlgdBSgz7htmFRMDK3X-27" value="*" style="text;html=1;align=center;verticalAlign=middle;resizable=0;points=[];autosize=1;strokeColor=none;fillColor=none;" vertex="1" parent="1">
          <mxGeometry x="580" y="-2910" width="30" height="30" as="geometry" />
        </mxCell>
        <mxCell id="XLlgdBSgz7htmFRMDK3X-28" value="1" style="text;html=1;align=center;verticalAlign=middle;resizable=0;points=[];autosize=1;strokeColor=none;fillColor=none;" vertex="1" parent="1">
          <mxGeometry x="245" y="-3090" width="30" height="30" as="geometry" />
        </mxCell>
        <mxCell id="XLlgdBSgz7htmFRMDK3X-29" value="*" style="text;html=1;align=center;verticalAlign=middle;resizable=0;points=[];autosize=1;strokeColor=none;fillColor=none;" vertex="1" parent="1">
          <mxGeometry x="280" y="-2940" width="30" height="30" as="geometry" />
        </mxCell>
        <mxCell id="XLlgdBSgz7htmFRMDK3X-30" value="1" style="text;html=1;align=center;verticalAlign=middle;resizable=0;points=[];autosize=1;strokeColor=none;fillColor=none;" vertex="1" parent="1">
          <mxGeometry x="403" y="-3035" width="30" height="30" as="geometry" />
        </mxCell>
        <mxCell id="XLlgdBSgz7htmFRMDK3X-31" value="1" style="text;html=1;align=center;verticalAlign=middle;resizable=0;points=[];autosize=1;strokeColor=none;fillColor=none;" vertex="1" parent="1">
          <mxGeometry x="403" y="-2986" width="30" height="30" as="geometry" />
        </mxCell>
      </root>
    </mxGraphModel>
  </diagram>
  <diagram id="JuzRF3OMJSnRURFyboO1" name="QuanLyUser">
    <mxGraphModel dx="1042" dy="3880" grid="1" gridSize="10" guides="1" tooltips="1" connect="1" arrows="1" fold="1" page="1" pageScale="1" pageWidth="850" pageHeight="1100" math="0" shadow="0">
      <root>
        <mxCell id="0" />
        <mxCell id="1" parent="0" />
        <mxCell id="Xv_kcffhqXy0NAW5tiOR-1" value="&amp;lt;&amp;lt;Actor&amp;gt;&amp;gt;&lt;div&gt;NguoiQuanTri&lt;/div&gt;" style="swimlane;fontStyle=1;align=center;verticalAlign=top;childLayout=stackLayout;horizontal=1;startSize=40;horizontalStack=0;resizeParent=1;resizeParentMax=0;resizeLast=0;collapsible=1;marginBottom=0;whiteSpace=wrap;html=1;" vertex="1" parent="1">
          <mxGeometry x="60" y="-3270" width="160" height="70" as="geometry" />
        </mxCell>
        <mxCell id="Xv_kcffhqXy0NAW5tiOR-2" value="" style="line;strokeWidth=1;fillColor=none;align=left;verticalAlign=middle;spacingTop=-1;spacingLeft=3;spacingRight=3;rotatable=0;labelPosition=right;points=[];portConstraint=eastwest;strokeColor=inherit;" vertex="1" parent="Xv_kcffhqXy0NAW5tiOR-1">
          <mxGeometry y="40" width="160" height="30" as="geometry" />
        </mxCell>
        <mxCell id="Xv_kcffhqXy0NAW5tiOR-3" value="&amp;lt;&amp;lt;Boundary&amp;gt;&amp;gt;&lt;div&gt;QuanLyUserUI&lt;/div&gt;" style="swimlane;fontStyle=1;align=center;verticalAlign=top;childLayout=stackLayout;horizontal=1;startSize=40;horizontalStack=0;resizeParent=1;resizeParentMax=0;resizeLast=0;collapsible=1;marginBottom=0;whiteSpace=wrap;html=1;" vertex="1" parent="1">
          <mxGeometry x="310" y="-3270" width="210" height="240" as="geometry" />
        </mxCell>
        <mxCell id="Xv_kcffhqXy0NAW5tiOR-4" value="" style="line;strokeWidth=1;fillColor=none;align=left;verticalAlign=middle;spacingTop=-1;spacingLeft=3;spacingRight=3;rotatable=0;labelPosition=right;points=[];portConstraint=eastwest;strokeColor=inherit;" vertex="1" parent="Xv_kcffhqXy0NAW5tiOR-3">
          <mxGeometry y="40" width="210" height="30" as="geometry" />
        </mxCell>
        <mxCell id="Xv_kcffhqXy0NAW5tiOR-5" value="&amp;nbsp; &amp;nbsp; &amp;nbsp;Kich nut &quot;Quan ly User()&quot;&lt;br&gt;&lt;div&gt;&lt;span style=&quot;background-color: transparent; color: light-dark(rgb(0, 0, 0), rgb(255, 255, 255));&quot;&gt;&amp;nbsp; &amp;nbsp; &amp;nbsp;&lt;/span&gt;Hien thi Danh sach User()&lt;/div&gt;&lt;div&gt;&lt;span style=&quot;background-color: transparent; color: light-dark(rgb(0, 0, 0), rgb(255, 255, 255));&quot;&gt;&amp;nbsp; &amp;nbsp; &amp;nbsp;&lt;/span&gt;Kich nut &quot;Them Moi()&quot;&lt;/div&gt;&lt;div&gt;&lt;span style=&quot;background-color: transparent; color: light-dark(rgb(0, 0, 0), rgb(255, 255, 255));&quot;&gt;&amp;nbsp; &amp;nbsp; &amp;nbsp;&lt;/span&gt;Hien thi man hinh them User()&lt;/div&gt;&lt;div&gt;&lt;span style=&quot;background-color: transparent; color: light-dark(rgb(0, 0, 0), rgb(255, 255, 255));&quot;&gt;&amp;nbsp; &amp;nbsp; &amp;nbsp;&lt;/span&gt;Kich nut &quot;Them()&quot;&lt;/div&gt;&lt;div&gt;&lt;span style=&quot;background-color: transparent; color: light-dark(rgb(0, 0, 0), rgb(255, 255, 255));&quot;&gt;&amp;nbsp; &amp;nbsp; &amp;nbsp;&lt;/span&gt;Kich nut &quot;Sua()&quot;&lt;/div&gt;&lt;div&gt;&amp;nbsp; &amp;nbsp; &amp;nbsp;&lt;span style=&quot;background-color: transparent; color: light-dark(rgb(0, 0, 0), rgb(255, 255, 255));&quot;&gt;Hien thi man hinh sua User()&lt;/span&gt;&lt;/div&gt;&lt;div&gt;&lt;span style=&quot;background-color: transparent; color: light-dark(rgb(0, 0, 0), rgb(255, 255, 255));&quot;&gt;&amp;nbsp; &amp;nbsp; &amp;nbsp;&lt;/span&gt;Kich nut &quot;Sua()&quot;&lt;/div&gt;&lt;div&gt;&amp;nbsp;&lt;span style=&quot;background-color: transparent; color: light-dark(rgb(0, 0, 0), rgb(255, 255, 255));&quot;&gt;&amp;nbsp;&amp;nbsp; &amp;nbsp;&lt;/span&gt;&lt;span style=&quot;background-color: transparent; color: light-dark(rgb(0, 0, 0), rgb(255, 255, 255));&quot;&gt;Kich nut &quot;Xoa()&quot;&lt;/span&gt;&lt;/div&gt;&lt;div&gt;&amp;nbsp; &amp;nbsp; &amp;nbsp;&lt;span style=&quot;background-color: transparent; color: light-dark(rgb(0, 0, 0), rgb(255, 255, 255));&quot;&gt;Hien thi hop thoai xac nhan()&lt;/span&gt;&lt;/div&gt;&lt;div&gt;&lt;span style=&quot;background-color: transparent; color: light-dark(rgb(0, 0, 0), rgb(255, 255, 255));&quot;&gt;&amp;nbsp; &amp;nbsp; &amp;nbsp;&lt;/span&gt;Kich nut &quot;Xac nhan()&quot;&lt;/div&gt;" style="text;html=1;align=left;verticalAlign=middle;resizable=0;points=[];autosize=1;strokeColor=none;fillColor=none;" vertex="1" parent="Xv_kcffhqXy0NAW5tiOR-3">
          <mxGeometry y="70" width="210" height="170" as="geometry" />
        </mxCell>
        <mxCell id="Xv_kcffhqXy0NAW5tiOR-6" value="&amp;lt;&amp;lt;Control&amp;gt;&amp;gt;&lt;div&gt;QuanLyUserController&lt;/div&gt;" style="swimlane;fontStyle=1;align=center;verticalAlign=top;childLayout=stackLayout;horizontal=1;startSize=40;horizontalStack=0;resizeParent=1;resizeParentMax=0;resizeLast=0;collapsible=1;marginBottom=0;whiteSpace=wrap;html=1;" vertex="1" parent="1">
          <mxGeometry x="305" y="-2960" width="220" height="170" as="geometry" />
        </mxCell>
        <mxCell id="Xv_kcffhqXy0NAW5tiOR-7" value="" style="line;strokeWidth=1;fillColor=none;align=left;verticalAlign=middle;spacingTop=-1;spacingLeft=3;spacingRight=3;rotatable=0;labelPosition=right;points=[];portConstraint=eastwest;strokeColor=inherit;" vertex="1" parent="Xv_kcffhqXy0NAW5tiOR-6">
          <mxGeometry y="40" width="220" height="30" as="geometry" />
        </mxCell>
        <mxCell id="Xv_kcffhqXy0NAW5tiOR-8" value="&amp;nbsp; &amp;nbsp; &amp;nbsp;Lay thong tin cac User()&lt;div&gt;&amp;nbsp; &amp;nbsp; &amp;nbsp;Sinh ra ma User()&lt;/div&gt;&lt;div&gt;&amp;nbsp; &amp;nbsp; &amp;nbsp;Tao User moi()&lt;/div&gt;&lt;div&gt;&amp;nbsp; &amp;nbsp; &amp;nbsp;Lay thong tin User duoc chon()&lt;/div&gt;&lt;div&gt;&amp;nbsp; &amp;nbsp; &amp;nbsp;Sua&amp;nbsp;&lt;span style=&quot;background-color: transparent; color: light-dark(rgb(0, 0, 0), rgb(255, 255, 255));&quot;&gt;thong tin User duoc chon()&lt;/span&gt;&lt;/div&gt;&lt;div&gt;&amp;nbsp; &amp;nbsp; &amp;nbsp;Xoa&amp;nbsp;&lt;span style=&quot;background-color: transparent; color: light-dark(rgb(0, 0, 0), rgb(255, 255, 255));&quot;&gt;thong tin User duoc chon()&lt;/span&gt;&lt;/div&gt;" style="text;html=1;align=left;verticalAlign=middle;resizable=0;points=[];autosize=1;strokeColor=none;fillColor=none;" vertex="1" parent="Xv_kcffhqXy0NAW5tiOR-6">
          <mxGeometry y="70" width="220" height="100" as="geometry" />
        </mxCell>
        <mxCell id="Xv_kcffhqXy0NAW5tiOR-9" value="&amp;lt;&amp;lt;Actor&amp;gt;&amp;gt;&lt;div&gt;CSDL&lt;/div&gt;" style="swimlane;fontStyle=1;align=center;verticalAlign=top;childLayout=stackLayout;horizontal=1;startSize=40;horizontalStack=0;resizeParent=1;resizeParentMax=0;resizeLast=0;collapsible=1;marginBottom=0;whiteSpace=wrap;html=1;" vertex="1" parent="1">
          <mxGeometry x="35" y="-2930" width="210" height="110" as="geometry" />
        </mxCell>
        <mxCell id="Xv_kcffhqXy0NAW5tiOR-10" value="" style="line;strokeWidth=1;fillColor=none;align=left;verticalAlign=middle;spacingTop=-1;spacingLeft=3;spacingRight=3;rotatable=0;labelPosition=right;points=[];portConstraint=eastwest;strokeColor=inherit;" vertex="1" parent="Xv_kcffhqXy0NAW5tiOR-9">
          <mxGeometry y="40" width="210" height="30" as="geometry" />
        </mxCell>
        <mxCell id="Xv_kcffhqXy0NAW5tiOR-11" value="&amp;nbsp; &amp;nbsp; &amp;nbsp;Doc bang User()&lt;div&gt;&amp;nbsp; &amp;nbsp; &amp;nbsp;Cap nhat bang User()&lt;/div&gt;" style="text;html=1;align=left;verticalAlign=middle;resizable=0;points=[];autosize=1;strokeColor=none;fillColor=none;" vertex="1" parent="Xv_kcffhqXy0NAW5tiOR-9">
          <mxGeometry y="70" width="210" height="40" as="geometry" />
        </mxCell>
        <mxCell id="Xv_kcffhqXy0NAW5tiOR-12" value="&amp;lt;&amp;lt;Actor&amp;gt;&amp;gt;&lt;div&gt;ICSDL&lt;/div&gt;" style="swimlane;fontStyle=1;align=center;verticalAlign=top;childLayout=stackLayout;horizontal=1;startSize=40;horizontalStack=0;resizeParent=1;resizeParentMax=0;resizeLast=0;collapsible=1;marginBottom=0;whiteSpace=wrap;html=1;" vertex="1" parent="1">
          <mxGeometry x="35" y="-3140" width="210" height="110" as="geometry" />
        </mxCell>
        <mxCell id="Xv_kcffhqXy0NAW5tiOR-13" value="" style="line;strokeWidth=1;fillColor=none;align=left;verticalAlign=middle;spacingTop=-1;spacingLeft=3;spacingRight=3;rotatable=0;labelPosition=right;points=[];portConstraint=eastwest;strokeColor=inherit;" vertex="1" parent="Xv_kcffhqXy0NAW5tiOR-12">
          <mxGeometry y="40" width="210" height="30" as="geometry" />
        </mxCell>
        <mxCell id="Xv_kcffhqXy0NAW5tiOR-14" value="&amp;nbsp; &amp;nbsp; &amp;nbsp;Doc bang User()&lt;div&gt;&amp;nbsp; &amp;nbsp; &amp;nbsp;Cap nhat bang User()&lt;/div&gt;" style="text;html=1;align=left;verticalAlign=middle;resizable=0;points=[];autosize=1;strokeColor=none;fillColor=none;" vertex="1" parent="Xv_kcffhqXy0NAW5tiOR-12">
          <mxGeometry y="70" width="210" height="40" as="geometry" />
        </mxCell>
        <mxCell id="Xv_kcffhqXy0NAW5tiOR-15" value="&amp;lt;&amp;lt;Entity&amp;gt;&amp;gt;&lt;div&gt;User&lt;/div&gt;" style="swimlane;fontStyle=1;align=center;verticalAlign=top;childLayout=stackLayout;horizontal=1;startSize=40;horizontalStack=0;resizeParent=1;resizeParentMax=0;resizeLast=0;collapsible=1;marginBottom=0;whiteSpace=wrap;html=1;" vertex="1" parent="1">
          <mxGeometry x="610" y="-3270" width="210" height="620" as="geometry" />
        </mxCell>
        <mxCell id="Xv_kcffhqXy0NAW5tiOR-16" value="&amp;nbsp; &amp;nbsp; &amp;nbsp;id&lt;div&gt;&amp;nbsp; &amp;nbsp; &amp;nbsp;fullname&lt;/div&gt;&lt;div&gt;&amp;nbsp; &amp;nbsp; &amp;nbsp;password&lt;/div&gt;&lt;div&gt;&amp;nbsp; &amp;nbsp; &amp;nbsp;email&lt;/div&gt;&lt;div&gt;&amp;nbsp; &amp;nbsp; &amp;nbsp;phoneNumber&lt;/div&gt;&lt;div&gt;&amp;nbsp; &amp;nbsp; &amp;nbsp;status&lt;/div&gt;&lt;div&gt;&amp;nbsp; &amp;nbsp; &amp;nbsp;createdDate&lt;/div&gt;&lt;div&gt;&amp;nbsp; &amp;nbsp; &amp;nbsp;lastModifiedDate&lt;/div&gt;&lt;div&gt;&amp;nbsp; &amp;nbsp; &amp;nbsp;role&lt;/div&gt;&lt;div&gt;&amp;nbsp; &amp;nbsp; &amp;nbsp;department&lt;/div&gt;&lt;div&gt;&amp;nbsp; &amp;nbsp; &amp;nbsp;address&lt;/div&gt;&lt;div&gt;&amp;nbsp; &amp;nbsp; &amp;nbsp;position&lt;/div&gt;" style="text;html=1;align=left;verticalAlign=middle;resizable=0;points=[];autosize=1;strokeColor=none;fillColor=none;" vertex="1" parent="Xv_kcffhqXy0NAW5tiOR-15">
          <mxGeometry y="40" width="210" height="190" as="geometry" />
        </mxCell>
        <mxCell id="Xv_kcffhqXy0NAW5tiOR-17" value="" style="line;strokeWidth=1;fillColor=none;align=left;verticalAlign=middle;spacingTop=-1;spacingLeft=3;spacingRight=3;rotatable=0;labelPosition=right;points=[];portConstraint=eastwest;strokeColor=inherit;" vertex="1" parent="Xv_kcffhqXy0NAW5tiOR-15">
          <mxGeometry y="230" width="210" height="30" as="geometry" />
        </mxCell>
        <mxCell id="Xv_kcffhqXy0NAW5tiOR-18" value="&amp;nbsp; &amp;nbsp; &amp;nbsp;getid&lt;div&gt;&amp;nbsp; &amp;nbsp; &amp;nbsp;getfullname&lt;/div&gt;&lt;div&gt;&amp;nbsp; &amp;nbsp; &amp;nbsp;get&lt;span style=&quot;background-color: transparent; color: light-dark(rgb(0, 0, 0), rgb(255, 255, 255));&quot;&gt;password&lt;/span&gt;&lt;/div&gt;&lt;div&gt;&amp;nbsp; &amp;nbsp; &amp;nbsp;get&lt;span style=&quot;background-color: transparent; color: light-dark(rgb(0, 0, 0), rgb(255, 255, 255));&quot;&gt;email&lt;/span&gt;&lt;/div&gt;&lt;div&gt;&amp;nbsp; &amp;nbsp; &amp;nbsp;get&lt;span style=&quot;background-color: transparent; color: light-dark(rgb(0, 0, 0), rgb(255, 255, 255));&quot;&gt;phoneNumber&lt;/span&gt;&lt;/div&gt;&lt;div&gt;&amp;nbsp; &amp;nbsp; &amp;nbsp;getstatus&lt;/div&gt;&lt;div&gt;&amp;nbsp; &amp;nbsp; &amp;nbsp;getcreatedDate&lt;/div&gt;&lt;div&gt;&amp;nbsp; &amp;nbsp; &amp;nbsp;getlastModifiedDate&lt;/div&gt;&lt;div&gt;&amp;nbsp; &amp;nbsp; &amp;nbsp;getrole&lt;/div&gt;&lt;div&gt;&amp;nbsp; &amp;nbsp; &amp;nbsp;getdepartment&lt;/div&gt;&lt;div&gt;&amp;nbsp; &amp;nbsp; &amp;nbsp;getaddress&lt;/div&gt;&lt;div&gt;&amp;nbsp; &amp;nbsp; &amp;nbsp;getposition&lt;/div&gt;&lt;div&gt;&amp;nbsp; &amp;nbsp; &amp;nbsp;setid&lt;div&gt;&amp;nbsp; &amp;nbsp; &amp;nbsp;setfullname&lt;/div&gt;&lt;div&gt;&amp;nbsp; &amp;nbsp; &amp;nbsp;set&lt;span style=&quot;background-color: transparent; color: light-dark(rgb(0, 0, 0), rgb(255, 255, 255));&quot;&gt;password&lt;/span&gt;&lt;/div&gt;&lt;div&gt;&amp;nbsp; &amp;nbsp; &amp;nbsp;set&lt;span style=&quot;background-color: transparent; color: light-dark(rgb(0, 0, 0), rgb(255, 255, 255));&quot;&gt;email&lt;/span&gt;&lt;/div&gt;&lt;div&gt;&amp;nbsp; &amp;nbsp; &amp;nbsp;set&lt;span style=&quot;background-color: transparent; color: light-dark(rgb(0, 0, 0), rgb(255, 255, 255));&quot;&gt;phoneNumber&lt;/span&gt;&lt;/div&gt;&lt;div&gt;&amp;nbsp; &amp;nbsp; &amp;nbsp;setstatus&lt;/div&gt;&lt;div&gt;&amp;nbsp; &amp;nbsp; &amp;nbsp;setcreatedDate&lt;/div&gt;&lt;div&gt;&amp;nbsp; &amp;nbsp; &amp;nbsp;setlastModifiedDate&lt;/div&gt;&lt;div&gt;&amp;nbsp; &amp;nbsp; &amp;nbsp;setrole&lt;/div&gt;&lt;/div&gt;&lt;div&gt;&amp;nbsp; &amp;nbsp; &amp;nbsp;setdepartment&lt;/div&gt;&lt;div&gt;&amp;nbsp; &amp;nbsp; &amp;nbsp;setaddress&lt;/div&gt;&lt;div&gt;&amp;nbsp; &amp;nbsp; &amp;nbsp;setposition&lt;/div&gt;" style="text;html=1;align=left;verticalAlign=middle;resizable=0;points=[];autosize=1;strokeColor=none;fillColor=none;" vertex="1" parent="Xv_kcffhqXy0NAW5tiOR-15">
          <mxGeometry y="260" width="210" height="360" as="geometry" />
        </mxCell>
        <mxCell id="Xv_kcffhqXy0NAW5tiOR-19" value="" style="endArrow=none;html=1;rounded=0;exitX=1;exitY=0.5;exitDx=0;exitDy=0;entryX=-0.008;entryY=0.166;entryDx=0;entryDy=0;entryPerimeter=0;" edge="1" parent="1" source="Xv_kcffhqXy0NAW5tiOR-1" target="Xv_kcffhqXy0NAW5tiOR-3">
          <mxGeometry width="50" height="50" relative="1" as="geometry">
            <mxPoint x="400" y="-2960" as="sourcePoint" />
            <mxPoint x="450" y="-3010" as="targetPoint" />
          </mxGeometry>
        </mxCell>
        <mxCell id="Xv_kcffhqXy0NAW5tiOR-20" value="" style="endArrow=none;html=1;rounded=0;exitX=0.5;exitY=0;exitDx=0;exitDy=0;" edge="1" parent="1" source="Xv_kcffhqXy0NAW5tiOR-9" target="Xv_kcffhqXy0NAW5tiOR-12">
          <mxGeometry width="50" height="50" relative="1" as="geometry">
            <mxPoint x="280" y="-2902.5" as="sourcePoint" />
            <mxPoint x="282.52" y="-3098.9700000000003" as="targetPoint" />
          </mxGeometry>
        </mxCell>
        <mxCell id="Xv_kcffhqXy0NAW5tiOR-21" value="" style="endArrow=none;html=1;rounded=0;exitX=0;exitY=0.25;exitDx=0;exitDy=0;entryX=1;entryY=0.5;entryDx=0;entryDy=0;" edge="1" parent="1" source="Xv_kcffhqXy0NAW5tiOR-6" target="Xv_kcffhqXy0NAW5tiOR-12">
          <mxGeometry width="50" height="50" relative="1" as="geometry">
            <mxPoint x="150" y="-2920" as="sourcePoint" />
            <mxPoint x="150" y="-3020" as="targetPoint" />
          </mxGeometry>
        </mxCell>
        <mxCell id="Xv_kcffhqXy0NAW5tiOR-22" value="" style="endArrow=none;html=1;rounded=0;" edge="1" parent="1" source="Xv_kcffhqXy0NAW5tiOR-6" target="Xv_kcffhqXy0NAW5tiOR-15">
          <mxGeometry width="50" height="50" relative="1" as="geometry">
            <mxPoint x="315" y="-2907" as="sourcePoint" />
            <mxPoint x="255" y="-3075" as="targetPoint" />
          </mxGeometry>
        </mxCell>
        <mxCell id="Xv_kcffhqXy0NAW5tiOR-23" value="" style="endArrow=none;html=1;rounded=0;exitX=0.47;exitY=-0.018;exitDx=0;exitDy=0;exitPerimeter=0;" edge="1" parent="1" source="Xv_kcffhqXy0NAW5tiOR-6" target="Xv_kcffhqXy0NAW5tiOR-3">
          <mxGeometry width="50" height="50" relative="1" as="geometry">
            <mxPoint x="535" y="-2896" as="sourcePoint" />
            <mxPoint x="620" y="-2920" as="targetPoint" />
          </mxGeometry>
        </mxCell>
        <mxCell id="Xv_kcffhqXy0NAW5tiOR-24" value="1" style="text;html=1;align=center;verticalAlign=middle;resizable=0;points=[];autosize=1;strokeColor=none;fillColor=none;" vertex="1" parent="1">
          <mxGeometry x="520" y="-2905" width="30" height="30" as="geometry" />
        </mxCell>
        <mxCell id="Xv_kcffhqXy0NAW5tiOR-25" value="*" style="text;html=1;align=center;verticalAlign=middle;resizable=0;points=[];autosize=1;strokeColor=none;fillColor=none;" vertex="1" parent="1">
          <mxGeometry x="580" y="-2910" width="30" height="30" as="geometry" />
        </mxCell>
        <mxCell id="Xv_kcffhqXy0NAW5tiOR-26" value="1" style="text;html=1;align=center;verticalAlign=middle;resizable=0;points=[];autosize=1;strokeColor=none;fillColor=none;" vertex="1" parent="1">
          <mxGeometry x="245" y="-3090" width="30" height="30" as="geometry" />
        </mxCell>
        <mxCell id="Xv_kcffhqXy0NAW5tiOR-27" value="*" style="text;html=1;align=center;verticalAlign=middle;resizable=0;points=[];autosize=1;strokeColor=none;fillColor=none;" vertex="1" parent="1">
          <mxGeometry x="280" y="-2940" width="30" height="30" as="geometry" />
        </mxCell>
        <mxCell id="Xv_kcffhqXy0NAW5tiOR-28" value="1" style="text;html=1;align=center;verticalAlign=middle;resizable=0;points=[];autosize=1;strokeColor=none;fillColor=none;" vertex="1" parent="1">
          <mxGeometry x="403" y="-3035" width="30" height="30" as="geometry" />
        </mxCell>
        <mxCell id="Xv_kcffhqXy0NAW5tiOR-29" value="1" style="text;html=1;align=center;verticalAlign=middle;resizable=0;points=[];autosize=1;strokeColor=none;fillColor=none;" vertex="1" parent="1">
          <mxGeometry x="403" y="-2986" width="30" height="30" as="geometry" />
        </mxCell>
      </root>
    </mxGraphModel>
  </diagram>
  <diagram id="T5FaHAOZCv_kLBzHGbY0" name="DangNhap">
    <mxGraphModel dx="1042" dy="3880" grid="1" gridSize="10" guides="1" tooltips="1" connect="1" arrows="1" fold="1" page="1" pageScale="1" pageWidth="850" pageHeight="1100" math="0" shadow="0">
      <root>
        <mxCell id="0" />
        <mxCell id="1" parent="0" />
        <mxCell id="VlubejmG9B4viMj1-yod-1" value="&amp;lt;&amp;lt;Actor&amp;gt;&amp;gt;&lt;div&gt;NguoiQuanTri&lt;/div&gt;" style="swimlane;fontStyle=1;align=center;verticalAlign=top;childLayout=stackLayout;horizontal=1;startSize=40;horizontalStack=0;resizeParent=1;resizeParentMax=0;resizeLast=0;collapsible=1;marginBottom=0;whiteSpace=wrap;html=1;" vertex="1" parent="1">
          <mxGeometry x="60" y="-3270" width="160" height="70" as="geometry" />
        </mxCell>
        <mxCell id="VlubejmG9B4viMj1-yod-2" value="" style="line;strokeWidth=1;fillColor=none;align=left;verticalAlign=middle;spacingTop=-1;spacingLeft=3;spacingRight=3;rotatable=0;labelPosition=right;points=[];portConstraint=eastwest;strokeColor=inherit;" vertex="1" parent="VlubejmG9B4viMj1-yod-1">
          <mxGeometry y="40" width="160" height="30" as="geometry" />
        </mxCell>
        <mxCell id="VlubejmG9B4viMj1-yod-3" value="&amp;lt;&amp;lt;Boundary&amp;gt;&amp;gt;&lt;div&gt;DangNhapUI&lt;/div&gt;" style="swimlane;fontStyle=1;align=center;verticalAlign=top;childLayout=stackLayout;horizontal=1;startSize=40;horizontalStack=0;resizeParent=1;resizeParentMax=0;resizeLast=0;collapsible=1;marginBottom=0;whiteSpace=wrap;html=1;" vertex="1" parent="1">
          <mxGeometry x="250" y="-3225" width="300" height="110" as="geometry" />
        </mxCell>
        <mxCell id="VlubejmG9B4viMj1-yod-4" value="" style="line;strokeWidth=1;fillColor=none;align=left;verticalAlign=middle;spacingTop=-1;spacingLeft=3;spacingRight=3;rotatable=0;labelPosition=right;points=[];portConstraint=eastwest;strokeColor=inherit;" vertex="1" parent="VlubejmG9B4viMj1-yod-3">
          <mxGeometry y="40" width="300" height="30" as="geometry" />
        </mxCell>
        <mxCell id="VlubejmG9B4viMj1-yod-5" value="&amp;nbsp; &amp;nbsp; &amp;nbsp;Kich nut &quot;DangNhap()&quot;&lt;br&gt;&lt;div&gt;&lt;span style=&quot;background-color: transparent; color: light-dark(rgb(0, 0, 0), rgb(255, 255, 255));&quot;&gt;&amp;nbsp; &amp;nbsp; &amp;nbsp;Hien thi thong bao thanh cong va hien trang chu&lt;/span&gt;&lt;span style=&quot;background-color: transparent; color: light-dark(rgb(0, 0, 0), rgb(255, 255, 255));&quot;&gt;&amp;nbsp;&lt;/span&gt;&lt;/div&gt;" style="text;html=1;align=left;verticalAlign=middle;resizable=0;points=[];autosize=1;strokeColor=none;fillColor=none;" vertex="1" parent="VlubejmG9B4viMj1-yod-3">
          <mxGeometry y="70" width="300" height="40" as="geometry" />
        </mxCell>
        <mxCell id="VlubejmG9B4viMj1-yod-6" value="&amp;lt;&amp;lt;Control&amp;gt;&amp;gt;&lt;div&gt;DangNhapController&lt;/div&gt;" style="swimlane;fontStyle=1;align=center;verticalAlign=top;childLayout=stackLayout;horizontal=1;startSize=40;horizontalStack=0;resizeParent=1;resizeParentMax=0;resizeLast=0;collapsible=1;marginBottom=0;whiteSpace=wrap;html=1;" vertex="1" parent="1">
          <mxGeometry x="305" y="-2960" width="220" height="100" as="geometry" />
        </mxCell>
        <mxCell id="VlubejmG9B4viMj1-yod-7" value="" style="line;strokeWidth=1;fillColor=none;align=left;verticalAlign=middle;spacingTop=-1;spacingLeft=3;spacingRight=3;rotatable=0;labelPosition=right;points=[];portConstraint=eastwest;strokeColor=inherit;" vertex="1" parent="VlubejmG9B4viMj1-yod-6">
          <mxGeometry y="40" width="220" height="30" as="geometry" />
        </mxCell>
        <mxCell id="VlubejmG9B4viMj1-yod-8" value="&amp;nbsp; &amp;nbsp; &amp;nbsp;Kiem tra bang User()" style="text;html=1;align=left;verticalAlign=middle;resizable=0;points=[];autosize=1;strokeColor=none;fillColor=none;" vertex="1" parent="VlubejmG9B4viMj1-yod-6">
          <mxGeometry y="70" width="220" height="30" as="geometry" />
        </mxCell>
        <mxCell id="VlubejmG9B4viMj1-yod-9" value="&amp;lt;&amp;lt;Actor&amp;gt;&amp;gt;&lt;div&gt;CSDL&lt;/div&gt;" style="swimlane;fontStyle=1;align=center;verticalAlign=top;childLayout=stackLayout;horizontal=1;startSize=40;horizontalStack=0;resizeParent=1;resizeParentMax=0;resizeLast=0;collapsible=1;marginBottom=0;whiteSpace=wrap;html=1;" vertex="1" parent="1">
          <mxGeometry x="35" y="-2930" width="210" height="100" as="geometry" />
        </mxCell>
        <mxCell id="VlubejmG9B4viMj1-yod-10" value="" style="line;strokeWidth=1;fillColor=none;align=left;verticalAlign=middle;spacingTop=-1;spacingLeft=3;spacingRight=3;rotatable=0;labelPosition=right;points=[];portConstraint=eastwest;strokeColor=inherit;" vertex="1" parent="VlubejmG9B4viMj1-yod-9">
          <mxGeometry y="40" width="210" height="30" as="geometry" />
        </mxCell>
        <mxCell id="VlubejmG9B4viMj1-yod-11" value="&amp;nbsp; &amp;nbsp; &amp;nbsp;Doc bang User()" style="text;html=1;align=left;verticalAlign=middle;resizable=0;points=[];autosize=1;strokeColor=none;fillColor=none;" vertex="1" parent="VlubejmG9B4viMj1-yod-9">
          <mxGeometry y="70" width="210" height="30" as="geometry" />
        </mxCell>
        <mxCell id="VlubejmG9B4viMj1-yod-12" value="&amp;lt;&amp;lt;Actor&amp;gt;&amp;gt;&lt;div&gt;ICSDL&lt;/div&gt;" style="swimlane;fontStyle=1;align=center;verticalAlign=top;childLayout=stackLayout;horizontal=1;startSize=40;horizontalStack=0;resizeParent=1;resizeParentMax=0;resizeLast=0;collapsible=1;marginBottom=0;whiteSpace=wrap;html=1;" vertex="1" parent="1">
          <mxGeometry x="10" y="-3090" width="210" height="100" as="geometry" />
        </mxCell>
        <mxCell id="VlubejmG9B4viMj1-yod-13" value="" style="line;strokeWidth=1;fillColor=none;align=left;verticalAlign=middle;spacingTop=-1;spacingLeft=3;spacingRight=3;rotatable=0;labelPosition=right;points=[];portConstraint=eastwest;strokeColor=inherit;" vertex="1" parent="VlubejmG9B4viMj1-yod-12">
          <mxGeometry y="40" width="210" height="30" as="geometry" />
        </mxCell>
        <mxCell id="VlubejmG9B4viMj1-yod-14" value="&amp;nbsp; &amp;nbsp; &amp;nbsp;Doc bang User()" style="text;html=1;align=left;verticalAlign=middle;resizable=0;points=[];autosize=1;strokeColor=none;fillColor=none;" vertex="1" parent="VlubejmG9B4viMj1-yod-12">
          <mxGeometry y="70" width="210" height="30" as="geometry" />
        </mxCell>
        <mxCell id="VlubejmG9B4viMj1-yod-15" value="&amp;lt;&amp;lt;Entity&amp;gt;&amp;gt;&lt;div&gt;User&lt;/div&gt;" style="swimlane;fontStyle=1;align=center;verticalAlign=top;childLayout=stackLayout;horizontal=1;startSize=40;horizontalStack=0;resizeParent=1;resizeParentMax=0;resizeLast=0;collapsible=1;marginBottom=0;whiteSpace=wrap;html=1;" vertex="1" parent="1">
          <mxGeometry x="610" y="-3270" width="210" height="620" as="geometry" />
        </mxCell>
        <mxCell id="VlubejmG9B4viMj1-yod-16" value="&amp;nbsp; &amp;nbsp; &amp;nbsp;id&lt;div&gt;&amp;nbsp; &amp;nbsp; &amp;nbsp;fullname&lt;/div&gt;&lt;div&gt;&amp;nbsp; &amp;nbsp; &amp;nbsp;password&lt;/div&gt;&lt;div&gt;&amp;nbsp; &amp;nbsp; &amp;nbsp;email&lt;/div&gt;&lt;div&gt;&amp;nbsp; &amp;nbsp; &amp;nbsp;phoneNumber&lt;/div&gt;&lt;div&gt;&amp;nbsp; &amp;nbsp; &amp;nbsp;status&lt;/div&gt;&lt;div&gt;&amp;nbsp; &amp;nbsp; &amp;nbsp;createdDate&lt;/div&gt;&lt;div&gt;&amp;nbsp; &amp;nbsp; &amp;nbsp;lastModifiedDate&lt;/div&gt;&lt;div&gt;&amp;nbsp; &amp;nbsp; &amp;nbsp;role&lt;/div&gt;&lt;div&gt;&amp;nbsp; &amp;nbsp; &amp;nbsp;department&lt;/div&gt;&lt;div&gt;&amp;nbsp; &amp;nbsp; &amp;nbsp;address&lt;/div&gt;&lt;div&gt;&amp;nbsp; &amp;nbsp; &amp;nbsp;position&lt;/div&gt;" style="text;html=1;align=left;verticalAlign=middle;resizable=0;points=[];autosize=1;strokeColor=none;fillColor=none;" vertex="1" parent="VlubejmG9B4viMj1-yod-15">
          <mxGeometry y="40" width="210" height="190" as="geometry" />
        </mxCell>
        <mxCell id="VlubejmG9B4viMj1-yod-17" value="" style="line;strokeWidth=1;fillColor=none;align=left;verticalAlign=middle;spacingTop=-1;spacingLeft=3;spacingRight=3;rotatable=0;labelPosition=right;points=[];portConstraint=eastwest;strokeColor=inherit;" vertex="1" parent="VlubejmG9B4viMj1-yod-15">
          <mxGeometry y="230" width="210" height="30" as="geometry" />
        </mxCell>
        <mxCell id="VlubejmG9B4viMj1-yod-18" value="&amp;nbsp; &amp;nbsp; &amp;nbsp;getid&lt;div&gt;&amp;nbsp; &amp;nbsp; &amp;nbsp;getfullname&lt;/div&gt;&lt;div&gt;&amp;nbsp; &amp;nbsp; &amp;nbsp;get&lt;span style=&quot;background-color: transparent; color: light-dark(rgb(0, 0, 0), rgb(255, 255, 255));&quot;&gt;password&lt;/span&gt;&lt;/div&gt;&lt;div&gt;&amp;nbsp; &amp;nbsp; &amp;nbsp;get&lt;span style=&quot;background-color: transparent; color: light-dark(rgb(0, 0, 0), rgb(255, 255, 255));&quot;&gt;email&lt;/span&gt;&lt;/div&gt;&lt;div&gt;&amp;nbsp; &amp;nbsp; &amp;nbsp;get&lt;span style=&quot;background-color: transparent; color: light-dark(rgb(0, 0, 0), rgb(255, 255, 255));&quot;&gt;phoneNumber&lt;/span&gt;&lt;/div&gt;&lt;div&gt;&amp;nbsp; &amp;nbsp; &amp;nbsp;getstatus&lt;/div&gt;&lt;div&gt;&amp;nbsp; &amp;nbsp; &amp;nbsp;getcreatedDate&lt;/div&gt;&lt;div&gt;&amp;nbsp; &amp;nbsp; &amp;nbsp;getlastModifiedDate&lt;/div&gt;&lt;div&gt;&amp;nbsp; &amp;nbsp; &amp;nbsp;getrole&lt;/div&gt;&lt;div&gt;&amp;nbsp; &amp;nbsp; &amp;nbsp;getdepartment&lt;/div&gt;&lt;div&gt;&amp;nbsp; &amp;nbsp; &amp;nbsp;getaddress&lt;/div&gt;&lt;div&gt;&amp;nbsp; &amp;nbsp; &amp;nbsp;getposition&lt;/div&gt;&lt;div&gt;&amp;nbsp; &amp;nbsp; &amp;nbsp;setid&lt;div&gt;&amp;nbsp; &amp;nbsp; &amp;nbsp;setfullname&lt;/div&gt;&lt;div&gt;&amp;nbsp; &amp;nbsp; &amp;nbsp;set&lt;span style=&quot;background-color: transparent; color: light-dark(rgb(0, 0, 0), rgb(255, 255, 255));&quot;&gt;password&lt;/span&gt;&lt;/div&gt;&lt;div&gt;&amp;nbsp; &amp;nbsp; &amp;nbsp;set&lt;span style=&quot;background-color: transparent; color: light-dark(rgb(0, 0, 0), rgb(255, 255, 255));&quot;&gt;email&lt;/span&gt;&lt;/div&gt;&lt;div&gt;&amp;nbsp; &amp;nbsp; &amp;nbsp;set&lt;span style=&quot;background-color: transparent; color: light-dark(rgb(0, 0, 0), rgb(255, 255, 255));&quot;&gt;phoneNumber&lt;/span&gt;&lt;/div&gt;&lt;div&gt;&amp;nbsp; &amp;nbsp; &amp;nbsp;setstatus&lt;/div&gt;&lt;div&gt;&amp;nbsp; &amp;nbsp; &amp;nbsp;setcreatedDate&lt;/div&gt;&lt;div&gt;&amp;nbsp; &amp;nbsp; &amp;nbsp;setlastModifiedDate&lt;/div&gt;&lt;div&gt;&amp;nbsp; &amp;nbsp; &amp;nbsp;setrole&lt;/div&gt;&lt;/div&gt;&lt;div&gt;&amp;nbsp; &amp;nbsp; &amp;nbsp;setdepartment&lt;/div&gt;&lt;div&gt;&amp;nbsp; &amp;nbsp; &amp;nbsp;setaddress&lt;/div&gt;&lt;div&gt;&amp;nbsp; &amp;nbsp; &amp;nbsp;setposition&lt;/div&gt;" style="text;html=1;align=left;verticalAlign=middle;resizable=0;points=[];autosize=1;strokeColor=none;fillColor=none;" vertex="1" parent="VlubejmG9B4viMj1-yod-15">
          <mxGeometry y="260" width="210" height="360" as="geometry" />
        </mxCell>
        <mxCell id="VlubejmG9B4viMj1-yod-19" value="" style="endArrow=none;html=1;rounded=0;exitX=1;exitY=0.5;exitDx=0;exitDy=0;entryX=-0.008;entryY=0.166;entryDx=0;entryDy=0;entryPerimeter=0;" edge="1" parent="1" source="VlubejmG9B4viMj1-yod-1" target="VlubejmG9B4viMj1-yod-3">
          <mxGeometry width="50" height="50" relative="1" as="geometry">
            <mxPoint x="400" y="-2960" as="sourcePoint" />
            <mxPoint x="450" y="-3010" as="targetPoint" />
          </mxGeometry>
        </mxCell>
        <mxCell id="VlubejmG9B4viMj1-yod-20" value="" style="endArrow=none;html=1;rounded=0;exitX=0.5;exitY=0;exitDx=0;exitDy=0;" edge="1" parent="1" source="VlubejmG9B4viMj1-yod-9" target="VlubejmG9B4viMj1-yod-12">
          <mxGeometry width="50" height="50" relative="1" as="geometry">
            <mxPoint x="280" y="-2902.5" as="sourcePoint" />
            <mxPoint x="282.52" y="-3098.9700000000003" as="targetPoint" />
          </mxGeometry>
        </mxCell>
        <mxCell id="VlubejmG9B4viMj1-yod-21" value="" style="endArrow=none;html=1;rounded=0;exitX=0;exitY=0.25;exitDx=0;exitDy=0;entryX=1;entryY=0.5;entryDx=0;entryDy=0;" edge="1" parent="1" source="VlubejmG9B4viMj1-yod-6" target="VlubejmG9B4viMj1-yod-12">
          <mxGeometry width="50" height="50" relative="1" as="geometry">
            <mxPoint x="150" y="-2920" as="sourcePoint" />
            <mxPoint x="150" y="-3020" as="targetPoint" />
          </mxGeometry>
        </mxCell>
        <mxCell id="VlubejmG9B4viMj1-yod-22" value="" style="endArrow=none;html=1;rounded=0;" edge="1" parent="1" source="VlubejmG9B4viMj1-yod-6" target="VlubejmG9B4viMj1-yod-15">
          <mxGeometry width="50" height="50" relative="1" as="geometry">
            <mxPoint x="315" y="-2907" as="sourcePoint" />
            <mxPoint x="255" y="-3075" as="targetPoint" />
          </mxGeometry>
        </mxCell>
        <mxCell id="VlubejmG9B4viMj1-yod-23" value="" style="endArrow=none;html=1;rounded=0;exitX=0.47;exitY=-0.018;exitDx=0;exitDy=0;exitPerimeter=0;" edge="1" parent="1" source="VlubejmG9B4viMj1-yod-6" target="VlubejmG9B4viMj1-yod-3">
          <mxGeometry width="50" height="50" relative="1" as="geometry">
            <mxPoint x="535" y="-2896" as="sourcePoint" />
            <mxPoint x="620" y="-2920" as="targetPoint" />
          </mxGeometry>
        </mxCell>
        <mxCell id="VlubejmG9B4viMj1-yod-24" value="1" style="text;html=1;align=center;verticalAlign=middle;resizable=0;points=[];autosize=1;strokeColor=none;fillColor=none;" vertex="1" parent="1">
          <mxGeometry x="520" y="-2905" width="30" height="30" as="geometry" />
        </mxCell>
        <mxCell id="VlubejmG9B4viMj1-yod-25" value="*" style="text;html=1;align=center;verticalAlign=middle;resizable=0;points=[];autosize=1;strokeColor=none;fillColor=none;" vertex="1" parent="1">
          <mxGeometry x="580" y="-2910" width="30" height="30" as="geometry" />
        </mxCell>
        <mxCell id="VlubejmG9B4viMj1-yod-26" value="1" style="text;html=1;align=center;verticalAlign=middle;resizable=0;points=[];autosize=1;strokeColor=none;fillColor=none;" vertex="1" parent="1">
          <mxGeometry x="245" y="-3090" width="30" height="30" as="geometry" />
        </mxCell>
        <mxCell id="VlubejmG9B4viMj1-yod-27" value="*" style="text;html=1;align=center;verticalAlign=middle;resizable=0;points=[];autosize=1;strokeColor=none;fillColor=none;" vertex="1" parent="1">
          <mxGeometry x="280" y="-2940" width="30" height="30" as="geometry" />
        </mxCell>
        <mxCell id="VlubejmG9B4viMj1-yod-28" value="1" style="text;html=1;align=center;verticalAlign=middle;resizable=0;points=[];autosize=1;strokeColor=none;fillColor=none;" vertex="1" parent="1">
          <mxGeometry x="403" y="-3035" width="30" height="30" as="geometry" />
        </mxCell>
        <mxCell id="VlubejmG9B4viMj1-yod-29" value="1" style="text;html=1;align=center;verticalAlign=middle;resizable=0;points=[];autosize=1;strokeColor=none;fillColor=none;" vertex="1" parent="1">
          <mxGeometry x="403" y="-2986" width="30" height="30" as="geometry" />
        </mxCell>
        <mxCell id="VlubejmG9B4viMj1-yod-30" value="" style="edgeStyle=orthogonalEdgeStyle;rounded=0;orthogonalLoop=1;jettySize=auto;html=1;" edge="1" parent="1" source="VlubejmG9B4viMj1-yod-16" target="VlubejmG9B4viMj1-yod-5">
          <mxGeometry relative="1" as="geometry" />
        </mxCell>
      </root>
    </mxGraphModel>
  </diagram>
  <diagram id="e_So_ejEeeQxRHnHn5oL" name="XemProject">
    <mxGraphModel dx="1042" dy="3880" grid="1" gridSize="10" guides="1" tooltips="1" connect="1" arrows="1" fold="1" page="1" pageScale="1" pageWidth="850" pageHeight="1100" math="0" shadow="0">
      <root>
        <mxCell id="0" />
        <mxCell id="1" parent="0" />
        <mxCell id="LswXTL_StBcO50KPbGsW-1" value="&amp;lt;&amp;lt;Actor&amp;gt;&amp;gt;&lt;div&gt;NguoiDung&lt;/div&gt;" style="swimlane;fontStyle=1;align=center;verticalAlign=top;childLayout=stackLayout;horizontal=1;startSize=40;horizontalStack=0;resizeParent=1;resizeParentMax=0;resizeLast=0;collapsible=1;marginBottom=0;whiteSpace=wrap;html=1;" vertex="1" parent="1">
          <mxGeometry x="60" y="-3270" width="160" height="70" as="geometry" />
        </mxCell>
        <mxCell id="LswXTL_StBcO50KPbGsW-2" value="" style="line;strokeWidth=1;fillColor=none;align=left;verticalAlign=middle;spacingTop=-1;spacingLeft=3;spacingRight=3;rotatable=0;labelPosition=right;points=[];portConstraint=eastwest;strokeColor=inherit;" vertex="1" parent="LswXTL_StBcO50KPbGsW-1">
          <mxGeometry y="40" width="160" height="30" as="geometry" />
        </mxCell>
        <mxCell id="LswXTL_StBcO50KPbGsW-3" value="&amp;lt;&amp;lt;Boundary&amp;gt;&amp;gt;&lt;div&gt;DanhSachProjectUI&lt;/div&gt;" style="swimlane;fontStyle=1;align=center;verticalAlign=top;childLayout=stackLayout;horizontal=1;startSize=40;horizontalStack=0;resizeParent=1;resizeParentMax=0;resizeLast=0;collapsible=1;marginBottom=0;whiteSpace=wrap;html=1;" vertex="1" parent="1">
          <mxGeometry x="310" y="-3270" width="220" height="110" as="geometry" />
        </mxCell>
        <mxCell id="LswXTL_StBcO50KPbGsW-4" value="" style="line;strokeWidth=1;fillColor=none;align=left;verticalAlign=middle;spacingTop=-1;spacingLeft=3;spacingRight=3;rotatable=0;labelPosition=right;points=[];portConstraint=eastwest;strokeColor=inherit;" vertex="1" parent="LswXTL_StBcO50KPbGsW-3">
          <mxGeometry y="40" width="220" height="30" as="geometry" />
        </mxCell>
        <mxCell id="LswXTL_StBcO50KPbGsW-5" value="&amp;nbsp; &amp;nbsp; &amp;nbsp;Kich nut &quot;Xem chi tiet Project()&quot;&lt;br&gt;&lt;div&gt;&lt;span style=&quot;background-color: transparent; color: light-dark(rgb(0, 0, 0), rgb(255, 255, 255));&quot;&gt;&amp;nbsp; &amp;nbsp; &amp;nbsp;&lt;/span&gt;Hien thi Thong tin chi tiet Project()&lt;/div&gt;" style="text;html=1;align=left;verticalAlign=middle;resizable=0;points=[];autosize=1;strokeColor=none;fillColor=none;" vertex="1" parent="LswXTL_StBcO50KPbGsW-3">
          <mxGeometry y="70" width="220" height="40" as="geometry" />
        </mxCell>
        <mxCell id="LswXTL_StBcO50KPbGsW-6" value="&amp;lt;&amp;lt;Control&amp;gt;&amp;gt;&lt;div&gt;ProjectController&lt;/div&gt;" style="swimlane;fontStyle=1;align=center;verticalAlign=top;childLayout=stackLayout;horizontal=1;startSize=40;horizontalStack=0;resizeParent=1;resizeParentMax=0;resizeLast=0;collapsible=1;marginBottom=0;whiteSpace=wrap;html=1;" vertex="1" parent="1">
          <mxGeometry x="305" y="-2960" width="220" height="100" as="geometry" />
        </mxCell>
        <mxCell id="LswXTL_StBcO50KPbGsW-7" value="" style="line;strokeWidth=1;fillColor=none;align=left;verticalAlign=middle;spacingTop=-1;spacingLeft=3;spacingRight=3;rotatable=0;labelPosition=right;points=[];portConstraint=eastwest;strokeColor=inherit;" vertex="1" parent="LswXTL_StBcO50KPbGsW-6">
          <mxGeometry y="40" width="220" height="30" as="geometry" />
        </mxCell>
        <mxCell id="LswXTL_StBcO50KPbGsW-8" value="&lt;div&gt;&amp;nbsp; &amp;nbsp; &amp;nbsp; Lay thong tin Project duoc chon()&lt;/div&gt;" style="text;html=1;align=left;verticalAlign=middle;resizable=0;points=[];autosize=1;strokeColor=none;fillColor=none;" vertex="1" parent="LswXTL_StBcO50KPbGsW-6">
          <mxGeometry y="70" width="220" height="30" as="geometry" />
        </mxCell>
        <mxCell id="LswXTL_StBcO50KPbGsW-9" value="&amp;lt;&amp;lt;Actor&amp;gt;&amp;gt;&lt;div&gt;CSDL&lt;/div&gt;" style="swimlane;fontStyle=1;align=center;verticalAlign=top;childLayout=stackLayout;horizontal=1;startSize=40;horizontalStack=0;resizeParent=1;resizeParentMax=0;resizeLast=0;collapsible=1;marginBottom=0;whiteSpace=wrap;html=1;" vertex="1" parent="1">
          <mxGeometry x="35" y="-2930" width="210" height="110" as="geometry" />
        </mxCell>
        <mxCell id="LswXTL_StBcO50KPbGsW-10" value="" style="line;strokeWidth=1;fillColor=none;align=left;verticalAlign=middle;spacingTop=-1;spacingLeft=3;spacingRight=3;rotatable=0;labelPosition=right;points=[];portConstraint=eastwest;strokeColor=inherit;" vertex="1" parent="LswXTL_StBcO50KPbGsW-9">
          <mxGeometry y="40" width="210" height="30" as="geometry" />
        </mxCell>
        <mxCell id="LswXTL_StBcO50KPbGsW-11" value="&amp;nbsp; &amp;nbsp; &amp;nbsp;Doc bang PROJECT()&lt;div&gt;&amp;nbsp; &amp;nbsp; &amp;nbsp;Cap nhat bang PROJECT()&lt;/div&gt;" style="text;html=1;align=left;verticalAlign=middle;resizable=0;points=[];autosize=1;strokeColor=none;fillColor=none;" vertex="1" parent="LswXTL_StBcO50KPbGsW-9">
          <mxGeometry y="70" width="210" height="40" as="geometry" />
        </mxCell>
        <mxCell id="LswXTL_StBcO50KPbGsW-12" value="&amp;lt;&amp;lt;Actor&amp;gt;&amp;gt;&lt;div&gt;ICSDL&lt;/div&gt;" style="swimlane;fontStyle=1;align=center;verticalAlign=top;childLayout=stackLayout;horizontal=1;startSize=40;horizontalStack=0;resizeParent=1;resizeParentMax=0;resizeLast=0;collapsible=1;marginBottom=0;whiteSpace=wrap;html=1;" vertex="1" parent="1">
          <mxGeometry x="35" y="-3140" width="210" height="110" as="geometry" />
        </mxCell>
        <mxCell id="LswXTL_StBcO50KPbGsW-13" value="" style="line;strokeWidth=1;fillColor=none;align=left;verticalAlign=middle;spacingTop=-1;spacingLeft=3;spacingRight=3;rotatable=0;labelPosition=right;points=[];portConstraint=eastwest;strokeColor=inherit;" vertex="1" parent="LswXTL_StBcO50KPbGsW-12">
          <mxGeometry y="40" width="210" height="30" as="geometry" />
        </mxCell>
        <mxCell id="LswXTL_StBcO50KPbGsW-14" value="&amp;nbsp; &amp;nbsp; &amp;nbsp;Doc bang PROJECT()&lt;div&gt;&amp;nbsp; &amp;nbsp; &amp;nbsp;Cap nhat bang PROJECT()&lt;/div&gt;" style="text;html=1;align=left;verticalAlign=middle;resizable=0;points=[];autosize=1;strokeColor=none;fillColor=none;" vertex="1" parent="LswXTL_StBcO50KPbGsW-12">
          <mxGeometry y="70" width="210" height="40" as="geometry" />
        </mxCell>
        <mxCell id="LswXTL_StBcO50KPbGsW-15" value="&amp;lt;&amp;lt;Entity&amp;gt;&amp;gt;&lt;div&gt;PROJECT&lt;/div&gt;" style="swimlane;fontStyle=1;align=center;verticalAlign=top;childLayout=stackLayout;horizontal=1;startSize=40;horizontalStack=0;resizeParent=1;resizeParentMax=0;resizeLast=0;collapsible=1;marginBottom=0;whiteSpace=wrap;html=1;" vertex="1" parent="1">
          <mxGeometry x="610" y="-3270" width="210" height="480" as="geometry" />
        </mxCell>
        <mxCell id="LswXTL_StBcO50KPbGsW-16" value="&amp;nbsp; &amp;nbsp; &amp;nbsp;id&lt;div&gt;&amp;nbsp; &amp;nbsp; &amp;nbsp;name&lt;/div&gt;&lt;div&gt;&amp;nbsp; &amp;nbsp; &amp;nbsp;description&lt;/div&gt;&lt;div&gt;&amp;nbsp; &amp;nbsp; &amp;nbsp;startDate&lt;/div&gt;&lt;div&gt;&amp;nbsp; &amp;nbsp; &amp;nbsp;dueDate&lt;/div&gt;&lt;div&gt;&amp;nbsp; &amp;nbsp; &amp;nbsp;status&lt;/div&gt;&lt;div&gt;&amp;nbsp; &amp;nbsp; &amp;nbsp;createdDate&lt;/div&gt;&lt;div&gt;&amp;nbsp; &amp;nbsp; &amp;nbsp;lastModifiedDate&lt;/div&gt;&lt;div&gt;&amp;nbsp; &amp;nbsp; &amp;nbsp;managerId&lt;/div&gt;" style="text;html=1;align=left;verticalAlign=middle;resizable=0;points=[];autosize=1;strokeColor=none;fillColor=none;" vertex="1" parent="LswXTL_StBcO50KPbGsW-15">
          <mxGeometry y="40" width="210" height="140" as="geometry" />
        </mxCell>
        <mxCell id="LswXTL_StBcO50KPbGsW-17" value="" style="line;strokeWidth=1;fillColor=none;align=left;verticalAlign=middle;spacingTop=-1;spacingLeft=3;spacingRight=3;rotatable=0;labelPosition=right;points=[];portConstraint=eastwest;strokeColor=inherit;" vertex="1" parent="LswXTL_StBcO50KPbGsW-15">
          <mxGeometry y="180" width="210" height="30" as="geometry" />
        </mxCell>
        <mxCell id="LswXTL_StBcO50KPbGsW-18" value="&amp;nbsp; &amp;nbsp; &amp;nbsp;getid&lt;div&gt;&amp;nbsp; &amp;nbsp; &amp;nbsp;getname&lt;/div&gt;&lt;div&gt;&amp;nbsp; &amp;nbsp; &amp;nbsp;getdescription&lt;/div&gt;&lt;div&gt;&amp;nbsp; &amp;nbsp; &amp;nbsp;getstartDate&lt;/div&gt;&lt;div&gt;&amp;nbsp; &amp;nbsp; &amp;nbsp;getdueDate&lt;/div&gt;&lt;div&gt;&amp;nbsp; &amp;nbsp; &amp;nbsp;getstatus&lt;/div&gt;&lt;div&gt;&amp;nbsp; &amp;nbsp; &amp;nbsp;getcreatedDate&lt;/div&gt;&lt;div&gt;&amp;nbsp; &amp;nbsp; &amp;nbsp;getlastModifiedDate&lt;/div&gt;&lt;div&gt;&amp;nbsp; &amp;nbsp; &amp;nbsp;getmanagerId&lt;/div&gt;&lt;div&gt;&amp;nbsp; &amp;nbsp; &amp;nbsp;setid&lt;div&gt;&amp;nbsp; &amp;nbsp; &amp;nbsp;setname&lt;/div&gt;&lt;div&gt;&amp;nbsp; &amp;nbsp; &amp;nbsp;setdescription&lt;/div&gt;&lt;div&gt;&amp;nbsp; &amp;nbsp; &amp;nbsp;setstartDate&lt;/div&gt;&lt;div&gt;&amp;nbsp; &amp;nbsp; &amp;nbsp;setdueDate&lt;/div&gt;&lt;div&gt;&amp;nbsp; &amp;nbsp; &amp;nbsp;setstatus&lt;/div&gt;&lt;div&gt;&amp;nbsp; &amp;nbsp; &amp;nbsp;setcreatedDate&lt;/div&gt;&lt;div&gt;&amp;nbsp; &amp;nbsp; &amp;nbsp;setlastModifiedDate&lt;/div&gt;&lt;div&gt;&amp;nbsp; &amp;nbsp; &amp;nbsp;setmanagerId&lt;/div&gt;&lt;/div&gt;" style="text;html=1;align=left;verticalAlign=middle;resizable=0;points=[];autosize=1;strokeColor=none;fillColor=none;" vertex="1" parent="LswXTL_StBcO50KPbGsW-15">
          <mxGeometry y="210" width="210" height="270" as="geometry" />
        </mxCell>
        <mxCell id="LswXTL_StBcO50KPbGsW-19" value="" style="endArrow=none;html=1;rounded=0;exitX=1;exitY=0.5;exitDx=0;exitDy=0;entryX=-0.008;entryY=0.166;entryDx=0;entryDy=0;entryPerimeter=0;" edge="1" parent="1" source="LswXTL_StBcO50KPbGsW-1" target="LswXTL_StBcO50KPbGsW-3">
          <mxGeometry width="50" height="50" relative="1" as="geometry">
            <mxPoint x="400" y="-2960" as="sourcePoint" />
            <mxPoint x="450" y="-3010" as="targetPoint" />
          </mxGeometry>
        </mxCell>
        <mxCell id="LswXTL_StBcO50KPbGsW-20" value="" style="endArrow=none;html=1;rounded=0;exitX=0.5;exitY=0;exitDx=0;exitDy=0;" edge="1" parent="1" source="LswXTL_StBcO50KPbGsW-9" target="LswXTL_StBcO50KPbGsW-12">
          <mxGeometry width="50" height="50" relative="1" as="geometry">
            <mxPoint x="280" y="-2902.5" as="sourcePoint" />
            <mxPoint x="282.52" y="-3098.9700000000003" as="targetPoint" />
          </mxGeometry>
        </mxCell>
        <mxCell id="LswXTL_StBcO50KPbGsW-21" value="" style="endArrow=none;html=1;rounded=0;exitX=0;exitY=0.25;exitDx=0;exitDy=0;entryX=1;entryY=0.5;entryDx=0;entryDy=0;" edge="1" parent="1" source="LswXTL_StBcO50KPbGsW-6" target="LswXTL_StBcO50KPbGsW-12">
          <mxGeometry width="50" height="50" relative="1" as="geometry">
            <mxPoint x="150" y="-2920" as="sourcePoint" />
            <mxPoint x="150" y="-3020" as="targetPoint" />
          </mxGeometry>
        </mxCell>
        <mxCell id="LswXTL_StBcO50KPbGsW-22" value="" style="endArrow=none;html=1;rounded=0;" edge="1" parent="1" source="LswXTL_StBcO50KPbGsW-6" target="LswXTL_StBcO50KPbGsW-15">
          <mxGeometry width="50" height="50" relative="1" as="geometry">
            <mxPoint x="315" y="-2907" as="sourcePoint" />
            <mxPoint x="255" y="-3075" as="targetPoint" />
          </mxGeometry>
        </mxCell>
        <mxCell id="LswXTL_StBcO50KPbGsW-23" value="" style="endArrow=none;html=1;rounded=0;exitX=0.47;exitY=-0.018;exitDx=0;exitDy=0;exitPerimeter=0;" edge="1" parent="1" source="LswXTL_StBcO50KPbGsW-6" target="LswXTL_StBcO50KPbGsW-3">
          <mxGeometry width="50" height="50" relative="1" as="geometry">
            <mxPoint x="535" y="-2896" as="sourcePoint" />
            <mxPoint x="620" y="-2920" as="targetPoint" />
          </mxGeometry>
        </mxCell>
        <mxCell id="LswXTL_StBcO50KPbGsW-24" value="1" style="text;html=1;align=center;verticalAlign=middle;resizable=0;points=[];autosize=1;strokeColor=none;fillColor=none;" vertex="1" parent="1">
          <mxGeometry x="520" y="-2905" width="30" height="30" as="geometry" />
        </mxCell>
        <mxCell id="LswXTL_StBcO50KPbGsW-25" value="*" style="text;html=1;align=center;verticalAlign=middle;resizable=0;points=[];autosize=1;strokeColor=none;fillColor=none;" vertex="1" parent="1">
          <mxGeometry x="580" y="-2910" width="30" height="30" as="geometry" />
        </mxCell>
        <mxCell id="LswXTL_StBcO50KPbGsW-26" value="1" style="text;html=1;align=center;verticalAlign=middle;resizable=0;points=[];autosize=1;strokeColor=none;fillColor=none;" vertex="1" parent="1">
          <mxGeometry x="245" y="-3090" width="30" height="30" as="geometry" />
        </mxCell>
        <mxCell id="LswXTL_StBcO50KPbGsW-27" value="*" style="text;html=1;align=center;verticalAlign=middle;resizable=0;points=[];autosize=1;strokeColor=none;fillColor=none;" vertex="1" parent="1">
          <mxGeometry x="280" y="-2940" width="30" height="30" as="geometry" />
        </mxCell>
        <mxCell id="LswXTL_StBcO50KPbGsW-28" value="1" style="text;html=1;align=center;verticalAlign=middle;resizable=0;points=[];autosize=1;strokeColor=none;fillColor=none;" vertex="1" parent="1">
          <mxGeometry x="403" y="-3035" width="30" height="30" as="geometry" />
        </mxCell>
        <mxCell id="LswXTL_StBcO50KPbGsW-29" value="1" style="text;html=1;align=center;verticalAlign=middle;resizable=0;points=[];autosize=1;strokeColor=none;fillColor=none;" vertex="1" parent="1">
          <mxGeometry x="403" y="-2986" width="30" height="30" as="geometry" />
        </mxCell>
      </root>
    </mxGraphModel>
  </diagram>
  <diagram id="Xjd-g0HQzF_0qtJeMlNV" name="XemTask">
    <mxGraphModel dx="1042" dy="3880" grid="1" gridSize="10" guides="1" tooltips="1" connect="1" arrows="1" fold="1" page="1" pageScale="1" pageWidth="850" pageHeight="1100" math="0" shadow="0">
      <root>
        <mxCell id="0" />
        <mxCell id="1" parent="0" />
        <mxCell id="obbZ-2TeCOgQfCSIwU5n-1" value="&amp;lt;&amp;lt;Actor&amp;gt;&amp;gt;&lt;div&gt;NguoiQuanTri&lt;/div&gt;" style="swimlane;fontStyle=1;align=center;verticalAlign=top;childLayout=stackLayout;horizontal=1;startSize=40;horizontalStack=0;resizeParent=1;resizeParentMax=0;resizeLast=0;collapsible=1;marginBottom=0;whiteSpace=wrap;html=1;" vertex="1" parent="1">
          <mxGeometry x="60" y="-3270" width="160" height="70" as="geometry" />
        </mxCell>
        <mxCell id="obbZ-2TeCOgQfCSIwU5n-2" value="" style="line;strokeWidth=1;fillColor=none;align=left;verticalAlign=middle;spacingTop=-1;spacingLeft=3;spacingRight=3;rotatable=0;labelPosition=right;points=[];portConstraint=eastwest;strokeColor=inherit;" vertex="1" parent="obbZ-2TeCOgQfCSIwU5n-1">
          <mxGeometry y="40" width="160" height="30" as="geometry" />
        </mxCell>
        <mxCell id="obbZ-2TeCOgQfCSIwU5n-3" value="&amp;lt;&amp;lt;Boundary&amp;gt;&amp;gt;&lt;div&gt;QuanLyTaskUI&lt;/div&gt;" style="swimlane;fontStyle=1;align=center;verticalAlign=top;childLayout=stackLayout;horizontal=1;startSize=40;horizontalStack=0;resizeParent=1;resizeParentMax=0;resizeLast=0;collapsible=1;marginBottom=0;whiteSpace=wrap;html=1;" vertex="1" parent="1">
          <mxGeometry x="310" y="-3270" width="210" height="110" as="geometry" />
        </mxCell>
        <mxCell id="obbZ-2TeCOgQfCSIwU5n-4" value="" style="line;strokeWidth=1;fillColor=none;align=left;verticalAlign=middle;spacingTop=-1;spacingLeft=3;spacingRight=3;rotatable=0;labelPosition=right;points=[];portConstraint=eastwest;strokeColor=inherit;" vertex="1" parent="obbZ-2TeCOgQfCSIwU5n-3">
          <mxGeometry y="40" width="210" height="30" as="geometry" />
        </mxCell>
        <mxCell id="obbZ-2TeCOgQfCSIwU5n-5" value="&amp;nbsp; &amp;nbsp; &amp;nbsp;Kich nut &quot;Xem chi tiet Task()&quot;&lt;br&gt;&lt;div&gt;&lt;span style=&quot;background-color: transparent; color: light-dark(rgb(0, 0, 0), rgb(255, 255, 255));&quot;&gt;&amp;nbsp; &amp;nbsp; &amp;nbsp;&lt;/span&gt;Hien thi Thong tin chi tiet Task()&lt;/div&gt;" style="text;html=1;align=left;verticalAlign=middle;resizable=0;points=[];autosize=1;strokeColor=none;fillColor=none;" vertex="1" parent="obbZ-2TeCOgQfCSIwU5n-3">
          <mxGeometry y="70" width="210" height="40" as="geometry" />
        </mxCell>
        <mxCell id="obbZ-2TeCOgQfCSIwU5n-6" value="&amp;lt;&amp;lt;Control&amp;gt;&amp;gt;&lt;div&gt;QuanLyTaskController&lt;/div&gt;" style="swimlane;fontStyle=1;align=center;verticalAlign=top;childLayout=stackLayout;horizontal=1;startSize=40;horizontalStack=0;resizeParent=1;resizeParentMax=0;resizeLast=0;collapsible=1;marginBottom=0;whiteSpace=wrap;html=1;" vertex="1" parent="1">
          <mxGeometry x="305" y="-2960" width="220" height="100" as="geometry" />
        </mxCell>
        <mxCell id="obbZ-2TeCOgQfCSIwU5n-7" value="" style="line;strokeWidth=1;fillColor=none;align=left;verticalAlign=middle;spacingTop=-1;spacingLeft=3;spacingRight=3;rotatable=0;labelPosition=right;points=[];portConstraint=eastwest;strokeColor=inherit;" vertex="1" parent="obbZ-2TeCOgQfCSIwU5n-6">
          <mxGeometry y="40" width="220" height="30" as="geometry" />
        </mxCell>
        <mxCell id="obbZ-2TeCOgQfCSIwU5n-8" value="&amp;nbsp; &amp;nbsp; &amp;nbsp;Lay thong tin Task duoc chon()" style="text;html=1;align=left;verticalAlign=middle;resizable=0;points=[];autosize=1;strokeColor=none;fillColor=none;" vertex="1" parent="obbZ-2TeCOgQfCSIwU5n-6">
          <mxGeometry y="70" width="220" height="30" as="geometry" />
        </mxCell>
        <mxCell id="obbZ-2TeCOgQfCSIwU5n-9" value="&amp;lt;&amp;lt;Actor&amp;gt;&amp;gt;&lt;div&gt;CSDL&lt;/div&gt;" style="swimlane;fontStyle=1;align=center;verticalAlign=top;childLayout=stackLayout;horizontal=1;startSize=40;horizontalStack=0;resizeParent=1;resizeParentMax=0;resizeLast=0;collapsible=1;marginBottom=0;whiteSpace=wrap;html=1;" vertex="1" parent="1">
          <mxGeometry x="35" y="-2930" width="210" height="100" as="geometry" />
        </mxCell>
        <mxCell id="obbZ-2TeCOgQfCSIwU5n-10" value="" style="line;strokeWidth=1;fillColor=none;align=left;verticalAlign=middle;spacingTop=-1;spacingLeft=3;spacingRight=3;rotatable=0;labelPosition=right;points=[];portConstraint=eastwest;strokeColor=inherit;" vertex="1" parent="obbZ-2TeCOgQfCSIwU5n-9">
          <mxGeometry y="40" width="210" height="30" as="geometry" />
        </mxCell>
        <mxCell id="obbZ-2TeCOgQfCSIwU5n-11" value="&amp;nbsp; &amp;nbsp; &amp;nbsp;Doc bang Task()" style="text;html=1;align=left;verticalAlign=middle;resizable=0;points=[];autosize=1;strokeColor=none;fillColor=none;" vertex="1" parent="obbZ-2TeCOgQfCSIwU5n-9">
          <mxGeometry y="70" width="210" height="30" as="geometry" />
        </mxCell>
        <mxCell id="obbZ-2TeCOgQfCSIwU5n-12" value="&amp;lt;&amp;lt;Actor&amp;gt;&amp;gt;&lt;div&gt;ICSDL&lt;/div&gt;" style="swimlane;fontStyle=1;align=center;verticalAlign=top;childLayout=stackLayout;horizontal=1;startSize=40;horizontalStack=0;resizeParent=1;resizeParentMax=0;resizeLast=0;collapsible=1;marginBottom=0;whiteSpace=wrap;html=1;" vertex="1" parent="1">
          <mxGeometry x="35" y="-3140" width="210" height="100" as="geometry" />
        </mxCell>
        <mxCell id="obbZ-2TeCOgQfCSIwU5n-13" value="" style="line;strokeWidth=1;fillColor=none;align=left;verticalAlign=middle;spacingTop=-1;spacingLeft=3;spacingRight=3;rotatable=0;labelPosition=right;points=[];portConstraint=eastwest;strokeColor=inherit;" vertex="1" parent="obbZ-2TeCOgQfCSIwU5n-12">
          <mxGeometry y="40" width="210" height="30" as="geometry" />
        </mxCell>
        <mxCell id="obbZ-2TeCOgQfCSIwU5n-14" value="&amp;nbsp; &amp;nbsp; &amp;nbsp;Doc bang Task()" style="text;html=1;align=left;verticalAlign=middle;resizable=0;points=[];autosize=1;strokeColor=none;fillColor=none;" vertex="1" parent="obbZ-2TeCOgQfCSIwU5n-12">
          <mxGeometry y="70" width="210" height="30" as="geometry" />
        </mxCell>
        <mxCell id="obbZ-2TeCOgQfCSIwU5n-15" value="&amp;lt;&amp;lt;Entity&amp;gt;&amp;gt;&lt;div&gt;Task&lt;/div&gt;" style="swimlane;fontStyle=1;align=center;verticalAlign=top;childLayout=stackLayout;horizontal=1;startSize=40;horizontalStack=0;resizeParent=1;resizeParentMax=0;resizeLast=0;collapsible=1;marginBottom=0;whiteSpace=wrap;html=1;" vertex="1" parent="1">
          <mxGeometry x="610" y="-3270" width="210" height="530" as="geometry" />
        </mxCell>
        <mxCell id="obbZ-2TeCOgQfCSIwU5n-16" value="&amp;nbsp; &amp;nbsp; &amp;nbsp;id&lt;div&gt;&amp;nbsp; &amp;nbsp; &amp;nbsp;name&lt;/div&gt;&lt;div&gt;&amp;nbsp; &amp;nbsp; &amp;nbsp;description&lt;/div&gt;&lt;div&gt;&amp;nbsp; &amp;nbsp; &amp;nbsp;startDate&lt;/div&gt;&lt;div&gt;&amp;nbsp; &amp;nbsp; &amp;nbsp;dueDate&lt;/div&gt;&lt;div&gt;&amp;nbsp; &amp;nbsp; &amp;nbsp;status&lt;/div&gt;&lt;div&gt;&amp;nbsp; &amp;nbsp; &amp;nbsp;createdDate&lt;/div&gt;&lt;div&gt;&amp;nbsp; &amp;nbsp; &amp;nbsp;lastModifiedDate&lt;/div&gt;&lt;div&gt;&amp;nbsp; &amp;nbsp; &amp;nbsp;projectId&lt;/div&gt;&lt;div&gt;&amp;nbsp; &amp;nbsp; &amp;nbsp;priority&lt;/div&gt;" style="text;html=1;align=left;verticalAlign=middle;resizable=0;points=[];autosize=1;strokeColor=none;fillColor=none;" vertex="1" parent="obbZ-2TeCOgQfCSIwU5n-15">
          <mxGeometry y="40" width="210" height="160" as="geometry" />
        </mxCell>
        <mxCell id="obbZ-2TeCOgQfCSIwU5n-17" value="" style="line;strokeWidth=1;fillColor=none;align=left;verticalAlign=middle;spacingTop=-1;spacingLeft=3;spacingRight=3;rotatable=0;labelPosition=right;points=[];portConstraint=eastwest;strokeColor=inherit;" vertex="1" parent="obbZ-2TeCOgQfCSIwU5n-15">
          <mxGeometry y="200" width="210" height="30" as="geometry" />
        </mxCell>
        <mxCell id="obbZ-2TeCOgQfCSIwU5n-18" value="&amp;nbsp; &amp;nbsp; &amp;nbsp;getid&lt;div&gt;&amp;nbsp; &amp;nbsp; &amp;nbsp;getname&lt;/div&gt;&lt;div&gt;&amp;nbsp; &amp;nbsp; &amp;nbsp;getdescription&lt;/div&gt;&lt;div&gt;&amp;nbsp; &amp;nbsp; &amp;nbsp;getstartDate&lt;/div&gt;&lt;div&gt;&amp;nbsp; &amp;nbsp; &amp;nbsp;getdueDate&lt;/div&gt;&lt;div&gt;&amp;nbsp; &amp;nbsp; &amp;nbsp;getstatus&lt;/div&gt;&lt;div&gt;&amp;nbsp; &amp;nbsp; &amp;nbsp;getcreatedDate&lt;/div&gt;&lt;div&gt;&amp;nbsp; &amp;nbsp; &amp;nbsp;getlastModifiedDate&lt;/div&gt;&lt;div&gt;&amp;nbsp; &amp;nbsp; &amp;nbsp;getprojectId&lt;/div&gt;&lt;div&gt;&amp;nbsp; &amp;nbsp; &amp;nbsp;getpriority&lt;/div&gt;&lt;div&gt;&amp;nbsp; &amp;nbsp; &amp;nbsp;setid&lt;div&gt;&amp;nbsp; &amp;nbsp; &amp;nbsp;setname&lt;/div&gt;&lt;div&gt;&amp;nbsp; &amp;nbsp; &amp;nbsp;setdescription&lt;/div&gt;&lt;div&gt;&amp;nbsp; &amp;nbsp; &amp;nbsp;setstartDate&lt;/div&gt;&lt;div&gt;&amp;nbsp; &amp;nbsp; &amp;nbsp;setdueDate&lt;/div&gt;&lt;div&gt;&amp;nbsp; &amp;nbsp; &amp;nbsp;setstatus&lt;/div&gt;&lt;div&gt;&amp;nbsp; &amp;nbsp; &amp;nbsp;setcreatedDate&lt;/div&gt;&lt;div&gt;&amp;nbsp; &amp;nbsp; &amp;nbsp;setlastModifiedDate&lt;/div&gt;&lt;div&gt;&amp;nbsp; &amp;nbsp; &amp;nbsp;setprojectId&lt;/div&gt;&lt;/div&gt;&lt;div&gt;&amp;nbsp; &amp;nbsp; &amp;nbsp;setpriority&lt;/div&gt;" style="text;html=1;align=left;verticalAlign=middle;resizable=0;points=[];autosize=1;strokeColor=none;fillColor=none;" vertex="1" parent="obbZ-2TeCOgQfCSIwU5n-15">
          <mxGeometry y="230" width="210" height="300" as="geometry" />
        </mxCell>
        <mxCell id="obbZ-2TeCOgQfCSIwU5n-19" value="" style="endArrow=none;html=1;rounded=0;exitX=1;exitY=0.5;exitDx=0;exitDy=0;entryX=-0.008;entryY=0.166;entryDx=0;entryDy=0;entryPerimeter=0;" edge="1" parent="1" source="obbZ-2TeCOgQfCSIwU5n-1" target="obbZ-2TeCOgQfCSIwU5n-3">
          <mxGeometry width="50" height="50" relative="1" as="geometry">
            <mxPoint x="400" y="-2960" as="sourcePoint" />
            <mxPoint x="450" y="-3010" as="targetPoint" />
          </mxGeometry>
        </mxCell>
        <mxCell id="obbZ-2TeCOgQfCSIwU5n-20" value="" style="endArrow=none;html=1;rounded=0;exitX=0.5;exitY=0;exitDx=0;exitDy=0;" edge="1" parent="1" source="obbZ-2TeCOgQfCSIwU5n-9" target="obbZ-2TeCOgQfCSIwU5n-12">
          <mxGeometry width="50" height="50" relative="1" as="geometry">
            <mxPoint x="280" y="-2902.5" as="sourcePoint" />
            <mxPoint x="282.52" y="-3098.9700000000003" as="targetPoint" />
          </mxGeometry>
        </mxCell>
        <mxCell id="obbZ-2TeCOgQfCSIwU5n-21" value="" style="endArrow=none;html=1;rounded=0;exitX=0;exitY=0.25;exitDx=0;exitDy=0;entryX=1;entryY=0.5;entryDx=0;entryDy=0;" edge="1" parent="1" source="obbZ-2TeCOgQfCSIwU5n-6" target="obbZ-2TeCOgQfCSIwU5n-12">
          <mxGeometry width="50" height="50" relative="1" as="geometry">
            <mxPoint x="150" y="-2920" as="sourcePoint" />
            <mxPoint x="150" y="-3020" as="targetPoint" />
          </mxGeometry>
        </mxCell>
        <mxCell id="obbZ-2TeCOgQfCSIwU5n-22" value="" style="endArrow=none;html=1;rounded=0;" edge="1" parent="1" source="obbZ-2TeCOgQfCSIwU5n-6" target="obbZ-2TeCOgQfCSIwU5n-15">
          <mxGeometry width="50" height="50" relative="1" as="geometry">
            <mxPoint x="315" y="-2907" as="sourcePoint" />
            <mxPoint x="255" y="-3075" as="targetPoint" />
          </mxGeometry>
        </mxCell>
        <mxCell id="obbZ-2TeCOgQfCSIwU5n-23" value="" style="endArrow=none;html=1;rounded=0;exitX=0.47;exitY=-0.018;exitDx=0;exitDy=0;exitPerimeter=0;" edge="1" parent="1" source="obbZ-2TeCOgQfCSIwU5n-6" target="obbZ-2TeCOgQfCSIwU5n-3">
          <mxGeometry width="50" height="50" relative="1" as="geometry">
            <mxPoint x="535" y="-2896" as="sourcePoint" />
            <mxPoint x="620" y="-2920" as="targetPoint" />
          </mxGeometry>
        </mxCell>
        <mxCell id="obbZ-2TeCOgQfCSIwU5n-24" value="1" style="text;html=1;align=center;verticalAlign=middle;resizable=0;points=[];autosize=1;strokeColor=none;fillColor=none;" vertex="1" parent="1">
          <mxGeometry x="520" y="-2905" width="30" height="30" as="geometry" />
        </mxCell>
        <mxCell id="obbZ-2TeCOgQfCSIwU5n-25" value="*" style="text;html=1;align=center;verticalAlign=middle;resizable=0;points=[];autosize=1;strokeColor=none;fillColor=none;" vertex="1" parent="1">
          <mxGeometry x="580" y="-2910" width="30" height="30" as="geometry" />
        </mxCell>
        <mxCell id="obbZ-2TeCOgQfCSIwU5n-26" value="1" style="text;html=1;align=center;verticalAlign=middle;resizable=0;points=[];autosize=1;strokeColor=none;fillColor=none;" vertex="1" parent="1">
          <mxGeometry x="245" y="-3090" width="30" height="30" as="geometry" />
        </mxCell>
        <mxCell id="obbZ-2TeCOgQfCSIwU5n-27" value="*" style="text;html=1;align=center;verticalAlign=middle;resizable=0;points=[];autosize=1;strokeColor=none;fillColor=none;" vertex="1" parent="1">
          <mxGeometry x="280" y="-2940" width="30" height="30" as="geometry" />
        </mxCell>
        <mxCell id="obbZ-2TeCOgQfCSIwU5n-28" value="1" style="text;html=1;align=center;verticalAlign=middle;resizable=0;points=[];autosize=1;strokeColor=none;fillColor=none;" vertex="1" parent="1">
          <mxGeometry x="403" y="-3035" width="30" height="30" as="geometry" />
        </mxCell>
        <mxCell id="obbZ-2TeCOgQfCSIwU5n-29" value="1" style="text;html=1;align=center;verticalAlign=middle;resizable=0;points=[];autosize=1;strokeColor=none;fillColor=none;" vertex="1" parent="1">
          <mxGeometry x="403" y="-2986" width="30" height="30" as="geometry" />
        </mxCell>
      </root>
    </mxGraphModel>
  </diagram>
  <diagram id="3DamkwPmuGGeabktjW1G" name="Update Subtask Status">
    <mxGraphModel dx="1042" dy="3880" grid="1" gridSize="10" guides="1" tooltips="1" connect="1" arrows="1" fold="1" page="1" pageScale="1" pageWidth="850" pageHeight="1100" math="0" shadow="0">
      <root>
        <mxCell id="0" />
        <mxCell id="1" parent="0" />
        <mxCell id="c_4elXJ1DID_E5Dg_l5R-1" value="&amp;lt;&amp;lt;Actor&amp;gt;&amp;gt;&lt;div&gt;NguoiDung&lt;/div&gt;" style="swimlane;fontStyle=1;align=center;verticalAlign=top;childLayout=stackLayout;horizontal=1;startSize=40;horizontalStack=0;resizeParent=1;resizeParentMax=0;resizeLast=0;collapsible=1;marginBottom=0;whiteSpace=wrap;html=1;" vertex="1" parent="1">
          <mxGeometry x="60" y="-3270" width="160" height="70" as="geometry" />
        </mxCell>
        <mxCell id="c_4elXJ1DID_E5Dg_l5R-2" value="" style="line;strokeWidth=1;fillColor=none;align=left;verticalAlign=middle;spacingTop=-1;spacingLeft=3;spacingRight=3;rotatable=0;labelPosition=right;points=[];portConstraint=eastwest;strokeColor=inherit;" vertex="1" parent="c_4elXJ1DID_E5Dg_l5R-1">
          <mxGeometry y="40" width="160" height="30" as="geometry" />
        </mxCell>
        <mxCell id="c_4elXJ1DID_E5Dg_l5R-3" value="&amp;lt;&amp;lt;Boundary&amp;gt;&amp;gt;&lt;div&gt;DanhSachSubTaskUI&lt;/div&gt;" style="swimlane;fontStyle=1;align=center;verticalAlign=top;childLayout=stackLayout;horizontal=1;startSize=40;horizontalStack=0;resizeParent=1;resizeParentMax=0;resizeLast=0;collapsible=1;marginBottom=0;whiteSpace=wrap;html=1;" vertex="1" parent="1">
          <mxGeometry x="260" y="-3270" width="310" height="110" as="geometry" />
        </mxCell>
        <mxCell id="c_4elXJ1DID_E5Dg_l5R-4" value="" style="line;strokeWidth=1;fillColor=none;align=left;verticalAlign=middle;spacingTop=-1;spacingLeft=3;spacingRight=3;rotatable=0;labelPosition=right;points=[];portConstraint=eastwest;strokeColor=inherit;" vertex="1" parent="c_4elXJ1DID_E5Dg_l5R-3">
          <mxGeometry y="40" width="310" height="30" as="geometry" />
        </mxCell>
        <mxCell id="c_4elXJ1DID_E5Dg_l5R-5" value="&amp;nbsp; &amp;nbsp; &amp;nbsp;Kich nut &quot;Danh dau Hoan thanh/ Chua hoan thanh&quot;&lt;br&gt;&lt;div&gt;&lt;span style=&quot;background-color: transparent; color: light-dark(rgb(0, 0, 0), rgb(255, 255, 255));&quot;&gt;&amp;nbsp; &amp;nbsp; &amp;nbsp;&lt;/span&gt;Chuyen doi thong tin subtask()&lt;/div&gt;" style="text;html=1;align=left;verticalAlign=middle;resizable=0;points=[];autosize=1;strokeColor=none;fillColor=none;" vertex="1" parent="c_4elXJ1DID_E5Dg_l5R-3">
          <mxGeometry y="70" width="310" height="40" as="geometry" />
        </mxCell>
        <mxCell id="c_4elXJ1DID_E5Dg_l5R-6" value="&amp;lt;&amp;lt;Control&amp;gt;&amp;gt;&lt;div&gt;SubtaskController&lt;/div&gt;" style="swimlane;fontStyle=1;align=center;verticalAlign=top;childLayout=stackLayout;horizontal=1;startSize=40;horizontalStack=0;resizeParent=1;resizeParentMax=0;resizeLast=0;collapsible=1;marginBottom=0;whiteSpace=wrap;html=1;" vertex="1" parent="1">
          <mxGeometry x="305" y="-2960" width="300" height="110" as="geometry" />
        </mxCell>
        <mxCell id="c_4elXJ1DID_E5Dg_l5R-7" value="" style="line;strokeWidth=1;fillColor=none;align=left;verticalAlign=middle;spacingTop=-1;spacingLeft=3;spacingRight=3;rotatable=0;labelPosition=right;points=[];portConstraint=eastwest;strokeColor=inherit;" vertex="1" parent="c_4elXJ1DID_E5Dg_l5R-6">
          <mxGeometry y="40" width="300" height="30" as="geometry" />
        </mxCell>
        <mxCell id="c_4elXJ1DID_E5Dg_l5R-8" value="&amp;nbsp; &amp;nbsp; &amp;nbsp;Lay thong tin Task duoc chon()&lt;div&gt;&amp;nbsp; &amp;nbsp; &amp;nbsp;Chuyen doi trang thai hoan thanh Subtask by Id()&lt;/div&gt;" style="text;html=1;align=left;verticalAlign=middle;resizable=0;points=[];autosize=1;strokeColor=none;fillColor=none;" vertex="1" parent="c_4elXJ1DID_E5Dg_l5R-6">
          <mxGeometry y="70" width="300" height="40" as="geometry" />
        </mxCell>
        <mxCell id="c_4elXJ1DID_E5Dg_l5R-9" value="&amp;lt;&amp;lt;Actor&amp;gt;&amp;gt;&lt;div&gt;CSDL&lt;/div&gt;" style="swimlane;fontStyle=1;align=center;verticalAlign=top;childLayout=stackLayout;horizontal=1;startSize=40;horizontalStack=0;resizeParent=1;resizeParentMax=0;resizeLast=0;collapsible=1;marginBottom=0;whiteSpace=wrap;html=1;" vertex="1" parent="1">
          <mxGeometry x="35" y="-2930" width="210" height="110" as="geometry" />
        </mxCell>
        <mxCell id="c_4elXJ1DID_E5Dg_l5R-10" value="" style="line;strokeWidth=1;fillColor=none;align=left;verticalAlign=middle;spacingTop=-1;spacingLeft=3;spacingRight=3;rotatable=0;labelPosition=right;points=[];portConstraint=eastwest;strokeColor=inherit;" vertex="1" parent="c_4elXJ1DID_E5Dg_l5R-9">
          <mxGeometry y="40" width="210" height="30" as="geometry" />
        </mxCell>
        <mxCell id="c_4elXJ1DID_E5Dg_l5R-11" value="&amp;nbsp; &amp;nbsp; &amp;nbsp;Doc bang Task()&lt;div&gt;&amp;nbsp; &amp;nbsp; &amp;nbsp;Cap nhat bang Subtask()&lt;/div&gt;" style="text;html=1;align=left;verticalAlign=middle;resizable=0;points=[];autosize=1;strokeColor=none;fillColor=none;" vertex="1" parent="c_4elXJ1DID_E5Dg_l5R-9">
          <mxGeometry y="70" width="210" height="40" as="geometry" />
        </mxCell>
        <mxCell id="c_4elXJ1DID_E5Dg_l5R-12" value="&amp;lt;&amp;lt;Actor&amp;gt;&amp;gt;&lt;div&gt;ICSDL&lt;/div&gt;" style="swimlane;fontStyle=1;align=center;verticalAlign=top;childLayout=stackLayout;horizontal=1;startSize=40;horizontalStack=0;resizeParent=1;resizeParentMax=0;resizeLast=0;collapsible=1;marginBottom=0;whiteSpace=wrap;html=1;" vertex="1" parent="1">
          <mxGeometry x="35" y="-3140" width="210" height="110" as="geometry" />
        </mxCell>
        <mxCell id="c_4elXJ1DID_E5Dg_l5R-13" value="" style="line;strokeWidth=1;fillColor=none;align=left;verticalAlign=middle;spacingTop=-1;spacingLeft=3;spacingRight=3;rotatable=0;labelPosition=right;points=[];portConstraint=eastwest;strokeColor=inherit;" vertex="1" parent="c_4elXJ1DID_E5Dg_l5R-12">
          <mxGeometry y="40" width="210" height="30" as="geometry" />
        </mxCell>
        <mxCell id="c_4elXJ1DID_E5Dg_l5R-14" value="&amp;nbsp; &amp;nbsp; &amp;nbsp;Doc bang Subtask()&lt;div&gt;&amp;nbsp; &amp;nbsp; &amp;nbsp;Cap nhat bang Subtask()&lt;/div&gt;" style="text;html=1;align=left;verticalAlign=middle;resizable=0;points=[];autosize=1;strokeColor=none;fillColor=none;" vertex="1" parent="c_4elXJ1DID_E5Dg_l5R-12">
          <mxGeometry y="70" width="210" height="40" as="geometry" />
        </mxCell>
        <mxCell id="c_4elXJ1DID_E5Dg_l5R-15" value="&amp;lt;&amp;lt;Entity&amp;gt;&amp;gt;&lt;div&gt;Subtask&lt;/div&gt;" style="swimlane;fontStyle=1;align=center;verticalAlign=top;childLayout=stackLayout;horizontal=1;startSize=40;horizontalStack=0;resizeParent=1;resizeParentMax=0;resizeLast=0;collapsible=1;marginBottom=0;whiteSpace=wrap;html=1;" vertex="1" parent="1">
          <mxGeometry x="610" y="-3270" width="210" height="480" as="geometry" />
        </mxCell>
        <mxCell id="c_4elXJ1DID_E5Dg_l5R-16" value="&amp;nbsp; &amp;nbsp; &amp;nbsp;id&lt;div&gt;&amp;nbsp; &amp;nbsp; &amp;nbsp;name&lt;/div&gt;&lt;div&gt;&amp;nbsp; &amp;nbsp; &amp;nbsp;completed&lt;/div&gt;&lt;div&gt;&amp;nbsp; &amp;nbsp; &amp;nbsp;startDate&lt;/div&gt;&lt;div&gt;&amp;nbsp; &amp;nbsp; &amp;nbsp;dueDate&lt;/div&gt;&lt;div&gt;&amp;nbsp; &amp;nbsp; &amp;nbsp;assgneeId&lt;/div&gt;&lt;div&gt;&amp;nbsp; &amp;nbsp; &amp;nbsp;createdDate&lt;/div&gt;&lt;div&gt;&amp;nbsp; &amp;nbsp; &amp;nbsp;lastModifiedDate&lt;/div&gt;&lt;div&gt;&amp;nbsp; &amp;nbsp; &amp;nbsp;taskId&lt;/div&gt;" style="text;html=1;align=left;verticalAlign=middle;resizable=0;points=[];autosize=1;strokeColor=none;fillColor=none;" vertex="1" parent="c_4elXJ1DID_E5Dg_l5R-15">
          <mxGeometry y="40" width="210" height="140" as="geometry" />
        </mxCell>
        <mxCell id="c_4elXJ1DID_E5Dg_l5R-17" value="" style="line;strokeWidth=1;fillColor=none;align=left;verticalAlign=middle;spacingTop=-1;spacingLeft=3;spacingRight=3;rotatable=0;labelPosition=right;points=[];portConstraint=eastwest;strokeColor=inherit;" vertex="1" parent="c_4elXJ1DID_E5Dg_l5R-15">
          <mxGeometry y="180" width="210" height="30" as="geometry" />
        </mxCell>
        <mxCell id="c_4elXJ1DID_E5Dg_l5R-18" value="&amp;nbsp; &amp;nbsp; &amp;nbsp;getid&lt;div&gt;&amp;nbsp; &amp;nbsp; &amp;nbsp;getname&lt;/div&gt;&lt;div&gt;&amp;nbsp; &amp;nbsp; &amp;nbsp;get&lt;span style=&quot;background-color: transparent; color: light-dark(rgb(0, 0, 0), rgb(255, 255, 255));&quot;&gt;completed&lt;/span&gt;&lt;/div&gt;&lt;div&gt;&amp;nbsp; &amp;nbsp; &amp;nbsp;getstartDate&lt;/div&gt;&lt;div&gt;&amp;nbsp; &amp;nbsp; &amp;nbsp;getdueDate&lt;/div&gt;&lt;div&gt;&amp;nbsp; &amp;nbsp; &amp;nbsp;get&lt;span style=&quot;background-color: transparent; color: light-dark(rgb(0, 0, 0), rgb(255, 255, 255));&quot;&gt;assgneeId&lt;/span&gt;&lt;/div&gt;&lt;div&gt;&amp;nbsp; &amp;nbsp; &amp;nbsp;getcreatedDate&lt;/div&gt;&lt;div&gt;&amp;nbsp; &amp;nbsp; &amp;nbsp;getlastModifiedDate&lt;/div&gt;&lt;div&gt;&amp;nbsp; &amp;nbsp; &amp;nbsp;get&lt;span style=&quot;background-color: transparent; color: light-dark(rgb(0, 0, 0), rgb(255, 255, 255));&quot;&gt;taskId&lt;/span&gt;&lt;/div&gt;&lt;div&gt;&amp;nbsp; &amp;nbsp; &amp;nbsp;setid&lt;div&gt;&amp;nbsp; &amp;nbsp; &amp;nbsp;setname&lt;/div&gt;&lt;div&gt;&amp;nbsp; &amp;nbsp; &amp;nbsp;set&lt;span style=&quot;background-color: transparent; color: light-dark(rgb(0, 0, 0), rgb(255, 255, 255));&quot;&gt;completed&lt;/span&gt;&lt;/div&gt;&lt;div&gt;&amp;nbsp; &amp;nbsp; &amp;nbsp;setstartDate&lt;/div&gt;&lt;div&gt;&amp;nbsp; &amp;nbsp; &amp;nbsp;setdueDate&lt;/div&gt;&lt;div&gt;&amp;nbsp; &amp;nbsp; &amp;nbsp;set&lt;span style=&quot;background-color: transparent; color: light-dark(rgb(0, 0, 0), rgb(255, 255, 255));&quot;&gt;assgneeId&lt;/span&gt;&lt;/div&gt;&lt;div&gt;&amp;nbsp; &amp;nbsp; &amp;nbsp;setcreatedDate&lt;/div&gt;&lt;div&gt;&amp;nbsp; &amp;nbsp; &amp;nbsp;setlastModifiedDate&lt;/div&gt;&lt;div&gt;&amp;nbsp; &amp;nbsp; &amp;nbsp;set&lt;span style=&quot;background-color: transparent; color: light-dark(rgb(0, 0, 0), rgb(255, 255, 255));&quot;&gt;taskId&lt;/span&gt;&lt;/div&gt;&lt;/div&gt;" style="text;html=1;align=left;verticalAlign=middle;resizable=0;points=[];autosize=1;strokeColor=none;fillColor=none;" vertex="1" parent="c_4elXJ1DID_E5Dg_l5R-15">
          <mxGeometry y="210" width="210" height="270" as="geometry" />
        </mxCell>
        <mxCell id="c_4elXJ1DID_E5Dg_l5R-19" value="" style="endArrow=none;html=1;rounded=0;exitX=1;exitY=0.5;exitDx=0;exitDy=0;entryX=-0.008;entryY=0.166;entryDx=0;entryDy=0;entryPerimeter=0;" edge="1" parent="1" source="c_4elXJ1DID_E5Dg_l5R-1" target="c_4elXJ1DID_E5Dg_l5R-3">
          <mxGeometry width="50" height="50" relative="1" as="geometry">
            <mxPoint x="400" y="-2960" as="sourcePoint" />
            <mxPoint x="450" y="-3010" as="targetPoint" />
          </mxGeometry>
        </mxCell>
        <mxCell id="c_4elXJ1DID_E5Dg_l5R-20" value="" style="endArrow=none;html=1;rounded=0;exitX=0.5;exitY=0;exitDx=0;exitDy=0;" edge="1" parent="1" source="c_4elXJ1DID_E5Dg_l5R-9" target="c_4elXJ1DID_E5Dg_l5R-12">
          <mxGeometry width="50" height="50" relative="1" as="geometry">
            <mxPoint x="280" y="-2902.5" as="sourcePoint" />
            <mxPoint x="282.52" y="-3098.9700000000003" as="targetPoint" />
          </mxGeometry>
        </mxCell>
        <mxCell id="c_4elXJ1DID_E5Dg_l5R-21" value="" style="endArrow=none;html=1;rounded=0;exitX=0;exitY=0.25;exitDx=0;exitDy=0;entryX=1;entryY=0.5;entryDx=0;entryDy=0;" edge="1" parent="1" source="c_4elXJ1DID_E5Dg_l5R-6" target="c_4elXJ1DID_E5Dg_l5R-12">
          <mxGeometry width="50" height="50" relative="1" as="geometry">
            <mxPoint x="150" y="-2920" as="sourcePoint" />
            <mxPoint x="150" y="-3020" as="targetPoint" />
          </mxGeometry>
        </mxCell>
        <mxCell id="c_4elXJ1DID_E5Dg_l5R-22" value="" style="endArrow=none;html=1;rounded=0;" edge="1" parent="1" source="c_4elXJ1DID_E5Dg_l5R-6" target="c_4elXJ1DID_E5Dg_l5R-15">
          <mxGeometry width="50" height="50" relative="1" as="geometry">
            <mxPoint x="315" y="-2907" as="sourcePoint" />
            <mxPoint x="255" y="-3075" as="targetPoint" />
          </mxGeometry>
        </mxCell>
        <mxCell id="c_4elXJ1DID_E5Dg_l5R-23" value="" style="endArrow=none;html=1;rounded=0;exitX=0.47;exitY=-0.018;exitDx=0;exitDy=0;exitPerimeter=0;" edge="1" parent="1" source="c_4elXJ1DID_E5Dg_l5R-6" target="c_4elXJ1DID_E5Dg_l5R-3">
          <mxGeometry width="50" height="50" relative="1" as="geometry">
            <mxPoint x="535" y="-2896" as="sourcePoint" />
            <mxPoint x="620" y="-2920" as="targetPoint" />
          </mxGeometry>
        </mxCell>
        <mxCell id="c_4elXJ1DID_E5Dg_l5R-24" value="1" style="text;html=1;align=center;verticalAlign=middle;resizable=0;points=[];autosize=1;strokeColor=none;fillColor=none;" vertex="1" parent="1">
          <mxGeometry x="520" y="-2905" width="30" height="30" as="geometry" />
        </mxCell>
        <mxCell id="c_4elXJ1DID_E5Dg_l5R-25" value="*" style="text;html=1;align=center;verticalAlign=middle;resizable=0;points=[];autosize=1;strokeColor=none;fillColor=none;" vertex="1" parent="1">
          <mxGeometry x="580" y="-2910" width="30" height="30" as="geometry" />
        </mxCell>
        <mxCell id="c_4elXJ1DID_E5Dg_l5R-26" value="1" style="text;html=1;align=center;verticalAlign=middle;resizable=0;points=[];autosize=1;strokeColor=none;fillColor=none;" vertex="1" parent="1">
          <mxGeometry x="245" y="-3090" width="30" height="30" as="geometry" />
        </mxCell>
        <mxCell id="c_4elXJ1DID_E5Dg_l5R-27" value="*" style="text;html=1;align=center;verticalAlign=middle;resizable=0;points=[];autosize=1;strokeColor=none;fillColor=none;" vertex="1" parent="1">
          <mxGeometry x="280" y="-2940" width="30" height="30" as="geometry" />
        </mxCell>
        <mxCell id="c_4elXJ1DID_E5Dg_l5R-28" value="1" style="text;html=1;align=center;verticalAlign=middle;resizable=0;points=[];autosize=1;strokeColor=none;fillColor=none;" vertex="1" parent="1">
          <mxGeometry x="403" y="-3035" width="30" height="30" as="geometry" />
        </mxCell>
        <mxCell id="c_4elXJ1DID_E5Dg_l5R-29" value="1" style="text;html=1;align=center;verticalAlign=middle;resizable=0;points=[];autosize=1;strokeColor=none;fillColor=none;" vertex="1" parent="1">
          <mxGeometry x="403" y="-2986" width="30" height="30" as="geometry" />
        </mxCell>
      </root>
    </mxGraphModel>
  </diagram>
</mxfile>
